<svg xmlns="http://www.w3.org/2000/svg" width="24" height="25"><defs><filter id="a" width="200%" height="200%" x="-50%" y="-50%"><feGaussianBlur result="SvgjsFeGaussianBlur1089Out" in="SourceGraphic"/></filter></defs><path d="M905.985 8207.29v-7.88c0-1.35-1.31-4.41-6.018-4.41-4.705 0-7.207 2.94-7.207 5.59l3.932.38s.877-2.68 2.91-2.68c2.033 0 2.402 1.65 2.402 2.01v1.71c-2.604.09-10.002.83-10.002 6.28 0 5.87 7.825 6.12 10.254 2.33.094.15.2.3.333.44.894.94 2.086 2.06 2.086 2.06l3.036-3s-1.726-1.36-1.726-2.83zm-17.751 6.3c1.31 1.59 5.598 5.41 11.198 5.41 5.601 0 8.936-3.06 9.352-3.59.416-.53.122-.82-.297-.65-9.888 4.71-16.026.77-19.954-1.62-.244-.15-.657.04-.299.45zm8.755-6.02c0-2.52 3.205-3.03 5.015-3.09v2.17c0 4.29-5.015 3.64-5.015.92zm14.275 5.66c-.266-.35-1.614-.41-2.463-.31-.85.1-2.128.63-2.016.94.055.11.172.06.756.01.585-.06 2.226-.27 2.569.18.344.45-.525 2.6-.682 2.94-.153.35.059.44.346.21.283-.23.797-.83 1.141-1.68.343-.84.551-2.03.349-2.29z" fill-opacity=".1" filter="url(#a)" transform="translate(-888 -8194)"/><path d="M17.985 12.29V4.41c0-1.35-1.31-4.41-6.018-4.41C7.262 0 4.76 2.94 4.76 5.59l3.932.38s.877-2.68 2.91-2.68c2.033 0 2.402 1.65 2.402 2.01v1.71c-2.604.09-10.002.83-10.002 6.28 0 5.87 7.825 6.12 10.254 2.33.094.15.2.3.333.44.894.94 2.086 2.06 2.086 2.06l3.036-3s-1.726-1.36-1.726-2.83zM.234 18.59C1.544 20.18 5.832 24 11.432 24c5.601 0 8.936-3.06 9.352-3.59.416-.53.122-.82-.297-.65-9.888 4.71-16.026.77-19.954-1.62-.244-.15-.657.04-.299.45zm8.755-6.02c0-2.52 3.205-3.03 5.015-3.09v2.17c0 4.29-5.015 3.64-5.015.92zm14.275 5.66c-.266-.35-1.614-.41-2.463-.31-.85.1-2.128.63-2.016.94.055.11.172.06.756.01.585-.06 2.226-.27 2.569.18.344.45-.525 2.6-.682 2.94-.153.35.059.44.346.21.283-.23.797-.83 1.141-1.68.343-.84.551-2.03.349-2.29z"/><path d="M17.985 12.29V4.41c0-1.35-1.31-4.41-6.018-4.41C7.262 0 4.76 2.94 4.76 5.59l3.932.38s.877-2.68 2.91-2.68c2.033 0 2.402 1.65 2.402 2.01v1.71c-2.604.09-10.002.83-10.002 6.28 0 5.87 7.825 6.12 10.254 2.33.094.15.2.3.333.44.894.94 2.086 2.06 2.086 2.06l3.036-3s-1.726-1.36-1.726-2.83zM.234 18.59C1.544 20.18 5.832 24 11.432 24c5.601 0 8.936-3.06 9.352-3.59.416-.53.122-.82-.297-.65-9.888 4.71-16.026.77-19.954-1.62-.244-.15-.657.04-.299.45zm8.755-6.02c0-2.52 3.205-3.03 5.015-3.09v2.17c0 4.29-5.015 3.64-5.015.92zm14.275 5.66c-.266-.35-1.614-.41-2.463-.31-.85.1-2.128.63-2.016.94.055.11.172.06.756.01.585-.06 2.226-.27 2.569.18.344.45-.525 2.6-.682 2.94-.153.35.059.44.346.21.283-.23.797-.83 1.141-1.68.343-.84.551-2.03.349-2.29z"/><path d="M17.985 12.29V4.41c0-1.35-1.31-4.41-6.018-4.41C7.262 0 4.76 2.94 4.76 5.59l3.932.38s.877-2.68 2.91-2.68c2.033 0 2.402 1.65 2.402 2.01v1.71c-2.604.09-10.002.83-10.002 6.28 0 5.87 7.825 6.12 10.254 2.33.094.15.2.3.333.44.894.94 2.086 2.06 2.086 2.06l3.036-3s-1.726-1.36-1.726-2.83zM.234 18.59C1.544 20.18 5.832 24 11.432 24c5.601 0 8.936-3.06 9.352-3.59.416-.53.122-.82-.297-.65-9.888 4.71-16.026.77-19.954-1.62-.244-.15-.657.04-.299.45zm8.755-6.02c0-2.52 3.205-3.03 5.015-3.09v2.17c0 4.29-5.015 3.64-5.015.92zm14.275 5.66c-.266-.35-1.614-.41-2.463-.31-.85.1-2.128.63-2.016.94.055.11.172.06.756.01.585-.06 2.226-.27 2.569.18.344.45-.525 2.6-.682 2.94-.153.35.059.44.346.21.283-.23.797-.83 1.141-1.68.343-.84.551-2.03.349-2.29z" fill="#fff"/></svg>