<svg xmlns="http://www.w3.org/2000/svg" width="24" height="16.64"><defs><filter id="a" width="200%" height="200%" x="-50%" y="-50%"><feGaussianBlur result="SvgjsFeGaussianBlur1073Out" in="SourceGraphic"/></filter></defs><path d="M776 8198h7.007c2.835 0 4.753 1.02 4.753 3.79 0 1.46-.73 2.48-2.024 3.11 1.816.52 2.733 1.91 2.733 3.77 0 3.02-2.566 4.32-5.255 4.32H776zm16.207 9.97c.083 1.88 1 3.08 2.646 3.08 1.19 0 2.275-.98 2.462-1.65h2.606c-.833 2.54-2.731 3.88-5.171 3.88-3.398 0-5.535-2.34-5.535-5.67 0-3.24 2.262-5.7 5.535-5.7 3.669 0 5.441 2.75 5.233 6.06zm-13.214 2.6h3.783c1.293 0 2.325-.42 2.325-1.96 0-1.53-.865-2.13-2.262-2.13h-3.846zm0-6.57h3.596c1.146 0 2.002-.52 2.002-1.77 0-1.42-1.085-1.71-2.252-1.71h-3.346zm18.03 2.03c-.271-1.5-.918-1.88-2.357-1.88-1.876 0-2.418 1.05-2.459 1.88zM792 8201v-2h6v2z" fill-opacity=".1" filter="url(#a)" transform="translate(-776 -8197)"/><path d="M0 0h7.007c2.835 0 4.753 1.02 4.753 3.79 0 1.46-.73 2.48-2.024 3.11 1.816.52 2.733 1.91 2.733 3.77 0 3.02-2.566 4.32-5.255 4.32H0zm16.207 9.97c.083 1.88 1 3.08 2.646 3.08 1.19 0 2.275-.98 2.462-1.65h2.606c-.833 2.54-2.731 3.88-5.171 3.88-3.398 0-5.535-2.34-5.535-5.67 0-3.24 2.262-5.7 5.535-5.7 3.669 0 5.441 2.75 5.233 6.06zm-13.214 2.6h3.783c1.293 0 2.325-.42 2.325-1.96 0-1.53-.865-2.13-2.262-2.13H2.993zm0-6.57h3.596c1.146 0 2.002-.52 2.002-1.77 0-1.42-1.085-1.71-2.252-1.71H2.993zm18.03 2.03c-.271-1.5-.918-1.88-2.357-1.88-1.876 0-2.418 1.05-2.459 1.88zM16 3V1h6v2z"/><path d="M0 0h7.007c2.835 0 4.753 1.02 4.753 3.79 0 1.46-.73 2.48-2.024 3.11 1.816.52 2.733 1.91 2.733 3.77 0 3.02-2.566 4.32-5.255 4.32H0zm16.207 9.97c.083 1.88 1 3.08 2.646 3.08 1.19 0 2.275-.98 2.462-1.65h2.606c-.833 2.54-2.731 3.88-5.171 3.88-3.398 0-5.535-2.34-5.535-5.67 0-3.24 2.262-5.7 5.535-5.7 3.669 0 5.441 2.75 5.233 6.06zm-13.214 2.6h3.783c1.293 0 2.325-.42 2.325-1.96 0-1.53-.865-2.13-2.262-2.13H2.993zm0-6.57h3.596c1.146 0 2.002-.52 2.002-1.77 0-1.42-1.085-1.71-2.252-1.71H2.993zm18.03 2.03c-.271-1.5-.918-1.88-2.357-1.88-1.876 0-2.418 1.05-2.459 1.88zM16 3V1h6v2z"/><path d="M0 0h7.007c2.835 0 4.753 1.02 4.753 3.79 0 1.46-.73 2.48-2.024 3.11 1.816.52 2.733 1.91 2.733 3.77 0 3.02-2.566 4.32-5.255 4.32H0zm16.207 9.97c.083 1.88 1 3.08 2.646 3.08 1.19 0 2.275-.98 2.462-1.65h2.606c-.833 2.54-2.731 3.88-5.171 3.88-3.398 0-5.535-2.34-5.535-5.67 0-3.24 2.262-5.7 5.535-5.7 3.669 0 5.441 2.75 5.233 6.06zm-13.214 2.6h3.783c1.293 0 2.325-.42 2.325-1.96 0-1.53-.865-2.13-2.262-2.13H2.993zm0-6.57h3.596c1.146 0 2.002-.52 2.002-1.77 0-1.42-1.085-1.71-2.252-1.71H2.993zm18.03 2.03c-.271-1.5-.918-1.88-2.357-1.88-1.876 0-2.418 1.05-2.459 1.88zM16 3V1h6v2z" fill="#fff"/></svg>