<svg xmlns="http://www.w3.org/2000/svg" width="24" height="24.52"><defs><filter id="a" width="200%" height="200%" x="-50%" y="-50%"><feGaussianBlur result="SvgjsFeGaussianBlur1041Out" in="SourceGraphic"/></filter></defs><path d="M956 8143.48c-6.362 0-11.52 5.16-11.52 11.52 0 6.36 5.158 11.52 11.52 11.52 6.362 0 11.52-5.16 11.52-11.52 0-6.36-5.158-11.52-11.52-11.52zm-9.622 11.52c0-.1.004-.21.008-.31h.052c3.428 0 6.833-.22 9.885-1.12.228.46.451.93.67 1.42-4.016 1.18-6.519 3.82-8.234 6.34a9.603 9.603 0 0 1-2.381-6.33zm3.783 7.64c1.624-2.45 3.888-4.87 7.571-5.88.861 2.2 1.562 4.61 1.933 7.14a9.709 9.709 0 0 1-3.665.72 9.576 9.576 0 0 1-5.839-1.98zm1.702-16.33a47.694 47.694 0 0 1 3.56 5.53c-2.703.74-5.726.94-8.786.95a9.688 9.688 0 0 1 5.226-6.48zm10.371 1.37c-1.356 1.65-3.059 2.78-4.986 3.55a49.862 49.862 0 0 0-3.515-5.58 9.419 9.419 0 0 1 2.267-.27c2.377 0 4.553.87 6.234 2.3zm1.325 1.38a9.557 9.557 0 0 1 2.057 5.67c-2.585-.45-4.814-.47-6.74-.16-.245-.56-.496-1.1-.753-1.63 2.065-.85 3.917-2.09 5.436-3.88zm-2.124 13.88c-.393-2.31-1.039-4.52-1.815-6.56 1.683-.21 3.619-.16 5.861.25a9.668 9.668 0 0 1-4.046 6.31z" fill-opacity=".1" filter="url(#a)" transform="translate(-944 -8142)"/><path d="M12 .48C5.638.48.48 5.64.48 12c0 6.36 5.158 11.52 11.52 11.52 6.362 0 11.52-5.16 11.52-11.52C23.52 5.64 18.362.48 12 .48zM2.378 12c0-.1.004-.21.008-.31h.052c3.428 0 6.833-.22 9.885-1.12.228.46.451.93.67 1.42-4.016 1.18-6.519 3.82-8.234 6.34A9.603 9.603 0 0 1 2.378 12zm3.783 7.64c1.624-2.45 3.888-4.87 7.571-5.88.861 2.2 1.562 4.61 1.933 7.14a9.709 9.709 0 0 1-3.665.72 9.576 9.576 0 0 1-5.839-1.98zM7.863 3.31a47.694 47.694 0 0 1 3.56 5.53c-2.703.74-5.726.94-8.786.95a9.688 9.688 0 0 1 5.226-6.48zm10.371 1.37c-1.356 1.65-3.059 2.78-4.986 3.55a49.862 49.862 0 0 0-3.515-5.58A9.419 9.419 0 0 1 12 2.38c2.377 0 4.553.87 6.234 2.3zm1.325 1.38a9.557 9.557 0 0 1 2.057 5.67c-2.585-.45-4.814-.47-6.74-.16-.245-.56-.496-1.1-.753-1.63 2.065-.85 3.917-2.09 5.436-3.88zm-2.124 13.88c-.393-2.31-1.039-4.52-1.815-6.56 1.683-.21 3.619-.16 5.861.25a9.668 9.668 0 0 1-4.046 6.31z"/><path d="M12 .48C5.638.48.48 5.64.48 12c0 6.36 5.158 11.52 11.52 11.52 6.362 0 11.52-5.16 11.52-11.52C23.52 5.64 18.362.48 12 .48zM2.378 12c0-.1.004-.21.008-.31h.052c3.428 0 6.833-.22 9.885-1.12.228.46.451.93.67 1.42-4.016 1.18-6.519 3.82-8.234 6.34A9.603 9.603 0 0 1 2.378 12zm3.783 7.64c1.624-2.45 3.888-4.87 7.571-5.88.861 2.2 1.562 4.61 1.933 7.14a9.709 9.709 0 0 1-3.665.72 9.576 9.576 0 0 1-5.839-1.98zM7.863 3.31a47.694 47.694 0 0 1 3.56 5.53c-2.703.74-5.726.94-8.786.95a9.688 9.688 0 0 1 5.226-6.48zm10.371 1.37c-1.356 1.65-3.059 2.78-4.986 3.55a49.862 49.862 0 0 0-3.515-5.58A9.419 9.419 0 0 1 12 2.38c2.377 0 4.553.87 6.234 2.3zm1.325 1.38a9.557 9.557 0 0 1 2.057 5.67c-2.585-.45-4.814-.47-6.74-.16-.245-.56-.496-1.1-.753-1.63 2.065-.85 3.917-2.09 5.436-3.88zm-2.124 13.88c-.393-2.31-1.039-4.52-1.815-6.56 1.683-.21 3.619-.16 5.861.25a9.668 9.668 0 0 1-4.046 6.31z"/><path d="M12 .48C5.638.48.48 5.64.48 12c0 6.36 5.158 11.52 11.52 11.52 6.362 0 11.52-5.16 11.52-11.52C23.52 5.64 18.362.48 12 .48zM2.378 12c0-.1.004-.21.008-.31h.052c3.428 0 6.833-.22 9.885-1.12.228.46.451.93.67 1.42-4.016 1.18-6.519 3.82-8.234 6.34A9.603 9.603 0 0 1 2.378 12zm3.783 7.64c1.624-2.45 3.888-4.87 7.571-5.88.861 2.2 1.562 4.61 1.933 7.14a9.709 9.709 0 0 1-3.665.72 9.576 9.576 0 0 1-5.839-1.98zM7.863 3.31a47.694 47.694 0 0 1 3.56 5.53c-2.703.74-5.726.94-8.786.95a9.688 9.688 0 0 1 5.226-6.48zm10.371 1.37c-1.356 1.65-3.059 2.78-4.986 3.55a49.862 49.862 0 0 0-3.515-5.58A9.419 9.419 0 0 1 12 2.38c2.377 0 4.553.87 6.234 2.3zm1.325 1.38a9.557 9.557 0 0 1 2.057 5.67c-2.585-.45-4.814-.47-6.74-.16-.245-.56-.496-1.1-.753-1.63 2.065-.85 3.917-2.09 5.436-3.88zm-2.124 13.88c-.393-2.31-1.039-4.52-1.815-6.56 1.683-.21 3.619-.16 5.861.25a9.668 9.668 0 0 1-4.046 6.31z" fill="#fff"/></svg>