<svg xmlns="http://www.w3.org/2000/svg" width="13" height="25.5"><defs><filter id="a" width="200%" height="200%" x="-50%" y="-50%"><feGaussianBlur result="SvgjsFeGaussianBlur1017Out" in="SourceGraphic"/></filter></defs><path d="M790.417 8146.96h2.594v-3.99h-3.323v.02c-4.405.15-5.591 2.63-5.67 5.23h-.008v2.75h-3v3.99h3v12.01H789v-12.01h3.031l.73-3.99H789v-2.46c0-.87.583-1.55 1.417-1.55z" fill-opacity=".1" filter="url(#a)" transform="translate(-781 -8141)"/><path d="M9.417 4.96h2.594V.97H8.688v.02c-4.405.15-5.591 2.63-5.67 5.23H3.01v2.75h-3v3.99h3v12.01H8V12.96h3.031l.73-3.99H8V6.51c0-.87.583-1.55 1.417-1.55z"/><path d="M9.417 4.96h2.594V.97H8.688v.02c-4.405.15-5.591 2.63-5.67 5.23H3.01v2.75h-3v3.99h3v12.01H8V12.96h3.031l.73-3.99H8V6.51c0-.87.583-1.55 1.417-1.55z"/><path d="M9.417 4.96h2.594V.97H8.688v.02c-4.405.15-5.591 2.63-5.67 5.23H3.01v2.75h-3v3.99h3v12.01H8V12.96h3.031l.73-3.99H8V6.51c0-.87.583-1.55 1.417-1.55z" fill="#fff"/></svg>