<svg xmlns="http://www.w3.org/2000/svg" width="24" height="12.505"><defs><filter id="a" width="200%" height="200%" x="-50%" y="-50%"><feGaussianBlur result="SvgjsFeGaussianBlur1033Out" in="SourceGraphic"/></filter></defs><path d="M899.014 8154.49c0 3.02-2.464 5.48-5.506 5.48-3.042 0-5.508-2.46-5.508-5.48 0-3.03 2.466-5.49 5.508-5.49s5.506 2.46 5.506 5.49zm12.986 0c0 3.04-2.462 5.51-5.498 5.51-3.038 0-5.5-2.47-5.5-5.51 0-3.04 2.462-5.5 5.5-5.5a5.498 5.498 0 0 1 5.498 5.5z" fill-opacity=".1" filter="url(#a)" transform="translate(-888 -8147)"/><path d="M11.014 6.49c0 3.02-2.464 5.48-5.506 5.48C2.466 11.97 0 9.51 0 6.49 0 3.46 2.466 1 5.508 1s5.506 2.46 5.506 5.49zM24 6.49C24 9.53 21.538 12 18.502 12c-3.038 0-5.5-2.47-5.5-5.51 0-3.04 2.462-5.5 5.5-5.5A5.498 5.498 0 0 1 24 6.49z"/><path d="M11.014 6.49c0 3.02-2.464 5.48-5.506 5.48C2.466 11.97 0 9.51 0 6.49 0 3.46 2.466 1 5.508 1s5.506 2.46 5.506 5.49zM24 6.49C24 9.53 21.538 12 18.502 12c-3.038 0-5.5-2.47-5.5-5.51 0-3.04 2.462-5.5 5.5-5.5A5.498 5.498 0 0 1 24 6.49z"/><path d="M11.014 6.49c0 3.02-2.464 5.48-5.506 5.48C2.466 11.97 0 9.51 0 6.49 0 3.46 2.466 1 5.508 1s5.506 2.46 5.506 5.49zM24 6.49C24 9.53 21.538 12 18.502 12c-3.038 0-5.5-2.47-5.5-5.51 0-3.04 2.462-5.5 5.5-5.5A5.498 5.498 0 0 1 24 6.49z" fill="#fff"/></svg>