<svg xmlns="http://www.w3.org/2000/svg" width="25" height="27.481"><defs><filter id="a" width="200%" height="200%" x="-50%" y="-50%"><feGaussianBlur result="SvgjsFeGaussianBlur1113Out" in="SourceGraphic"/></filter></defs><path d="M1067.92 8220.63c-.31-.04-4.36-.24-4.55-.36.07.16 0-2.52-.01-2.9-.03-.02-3.66 1.07-5.22-1.55-.25-.42-.65-1.92-1.74-2.75-.04-.03-.84-.44-.91-.84-.01-.05.05-.17.13-.2s1.4-.57 2.88 1.29c.44.62 1.44 3.01 4.96 1.54.09-.37.28-1.22 1.4-1.45-5.24-.62-7.62-2.61-8.37-7.06-.46-3.03.43-5.56 1.77-6.8-.2-.27-.87-2.48.17-4.83 1.12-.22 3.18.58 4.99 1.88 2.56-.92 7.36-.68 9.07 0 .82-.67 3.73-2.24 4.99-1.88.36.94.89 3.19.16 4.84 1.63 1.66 2.09 3.82 1.79 6.46-.36 4.01-2.82 6.88-8.37 7.35 1.4.96 1.46 2.46 1.51 3.05.01 1.38-.02 3.25 0 3.85" fill-opacity=".1" filter="url(#a)" transform="translate(-1055 -8193)"/><path d="M12.92 26.63c-.31-.04-4.36-.24-4.55-.36.07.16 0-2.52-.01-2.9-.03-.02-3.66 1.07-5.22-1.55-.25-.42-.65-1.92-1.74-2.75-.04-.03-.84-.44-.91-.84-.01-.05.05-.17.13-.2s1.4-.57 2.88 1.29c.44.62 1.44 3.01 4.96 1.54.09-.37.28-1.22 1.4-1.45-5.24-.62-7.62-2.61-8.37-7.06-.46-3.03.43-5.56 1.77-6.8-.2-.27-.87-2.48.17-4.83C4.55.5 6.61 1.3 8.42 2.6c2.56-.92 7.36-.68 9.07 0 .82-.67 3.73-2.24 4.99-1.88.36.94.89 3.19.16 4.84 1.63 1.66 2.09 3.82 1.79 6.46-.36 4.01-2.82 6.88-8.37 7.35 1.4.96 1.46 2.46 1.51 3.05.01 1.38-.02 3.25 0 3.85"/><path d="M12.92 26.63c-.31-.04-4.36-.24-4.55-.36.07.16 0-2.52-.01-2.9-.03-.02-3.66 1.07-5.22-1.55-.25-.42-.65-1.92-1.74-2.75-.04-.03-.84-.44-.91-.84-.01-.05.05-.17.13-.2s1.4-.57 2.88 1.29c.44.62 1.44 3.01 4.96 1.54.09-.37.28-1.22 1.4-1.45-5.24-.62-7.62-2.61-8.37-7.06-.46-3.03.43-5.56 1.77-6.8-.2-.27-.87-2.48.17-4.83C4.55.5 6.61 1.3 8.42 2.6c2.56-.92 7.36-.68 9.07 0 .82-.67 3.73-2.24 4.99-1.88.36.94.89 3.19.16 4.84 1.63 1.66 2.09 3.82 1.79 6.46-.36 4.01-2.82 6.88-8.37 7.35 1.4.96 1.46 2.46 1.51 3.05.01 1.38-.02 3.25 0 3.85"/><path d="M12.92 26.63c-.31-.04-4.36-.24-4.55-.36.07.16 0-2.52-.01-2.9-.03-.02-3.66 1.07-5.22-1.55-.25-.42-.65-1.92-1.74-2.75-.04-.03-.84-.44-.91-.84-.01-.05.05-.17.13-.2s1.4-.57 2.88 1.29c.44.62 1.44 3.01 4.96 1.54.09-.37.28-1.22 1.4-1.45-5.24-.62-7.62-2.61-8.37-7.06-.46-3.03.43-5.56 1.77-6.8-.2-.27-.87-2.48.17-4.83C4.55.5 6.61 1.3 8.42 2.6c2.56-.92 7.36-.68 9.07 0 .82-.67 3.73-2.24 4.99-1.88.36.94.89 3.19.16 4.84 1.63 1.66 2.09 3.82 1.79 6.46-.36 4.01-2.82 6.88-8.37 7.35 1.4.96 1.46 2.46 1.51 3.05.01 1.38-.02 3.25 0 3.85" fill="#fff"/></svg>