<svg xmlns="http://www.w3.org/2000/svg" width="25" height="22.505"><defs><filter id="a" width="200%" height="200%" x="-50%" y="-50%"><feGaussianBlur result="SvgjsFeGaussianBlur1025Out" in="SourceGraphic"/></filter></defs><path d="M844.758 8158.21c-.614-.44-1.788-1.5-1.788-2.12 0-.72.208-1.08 1.304-1.94 1.124-.88 1.794-1.96 1.794-3.4 0-1.7-.636-3.77-2.065-3.77h2.154l1.522-1h-6.796c-3.047 0-5.913 2.11-5.913 4.78 0 2.73 2.075 4.84 5.175 4.84.215 0 .424-.06.63-.07-.202.38-.345.79-.345 1.24 0 .76.41 1.36.926 1.87h-1.179c-3.773 0-7.208 2.03-7.208 4.52 0 2.45 3.715 3.83 7.488 3.83 4.301 0 6.522-1.91 6.522-4.36 0-1.97-.425-3.15-2.221-4.42zm-4.315 7.69c-2.607 0-4.491-1.12-4.491-3.1 0-1.94 2.335-3.56 4.943-3.53.61 0 1.175.1 1.692.27 1.416.98 2.181 1.54 2.468 2.66.052.23.083.46.083.7 0 1.98-1.028 3-4.695 3zm.686-11.1c-1.752-.05-3.415-1.96-3.716-4.25-.304-2.3.87-4.06 2.62-4.01 1.75.05 3.414 1.9 3.717 4.19.302 2.3-.871 4.12-2.621 4.07zm10.877-7.87v3.05h-2.995v2.02h2.995v3h2.001v-3H857v-2.02h-2.993v-3.05z" fill-opacity=".1" filter="url(#a)" transform="translate(-832 -8144)"/><path d="M12.758 13.21c-.614-.44-1.788-1.5-1.788-2.12 0-.72.208-1.08 1.304-1.94 1.124-.88 1.794-1.96 1.794-3.4 0-1.7-.636-3.77-2.065-3.77h2.154l1.522-1H8.883C5.836.98 2.97 3.09 2.97 5.76c0 2.73 2.075 4.84 5.175 4.84.215 0 .424-.06.63-.07-.202.38-.345.79-.345 1.24 0 .76.41 1.36.926 1.87H8.177c-3.773 0-7.208 2.03-7.208 4.52 0 2.45 3.715 3.83 7.488 3.83 4.301 0 6.522-1.91 6.522-4.36 0-1.97-.425-3.15-2.221-4.42zM8.443 20.9c-2.607 0-4.491-1.12-4.491-3.1 0-1.94 2.335-3.56 4.943-3.53.61 0 1.175.1 1.692.27 1.416.98 2.181 1.54 2.468 2.66.052.23.083.46.083.7 0 1.98-1.028 3-4.695 3zm.686-11.1c-1.752-.05-3.415-1.96-3.716-4.25-.304-2.3.87-4.06 2.62-4.01 1.75.05 3.414 1.9 3.717 4.19.302 2.3-.871 4.12-2.621 4.07zm10.877-7.87v3.05h-2.995V7h2.995v3h2.001V7H25V4.98h-2.993V1.93z"/><path d="M12.758 13.21c-.614-.44-1.788-1.5-1.788-2.12 0-.72.208-1.08 1.304-1.94 1.124-.88 1.794-1.96 1.794-3.4 0-1.7-.636-3.77-2.065-3.77h2.154l1.522-1H8.883C5.836.98 2.97 3.09 2.97 5.76c0 2.73 2.075 4.84 5.175 4.84.215 0 .424-.06.63-.07-.202.38-.345.79-.345 1.24 0 .76.41 1.36.926 1.87H8.177c-3.773 0-7.208 2.03-7.208 4.52 0 2.45 3.715 3.83 7.488 3.83 4.301 0 6.522-1.91 6.522-4.36 0-1.97-.425-3.15-2.221-4.42zM8.443 20.9c-2.607 0-4.491-1.12-4.491-3.1 0-1.94 2.335-3.56 4.943-3.53.61 0 1.175.1 1.692.27 1.416.98 2.181 1.54 2.468 2.66.052.23.083.46.083.7 0 1.98-1.028 3-4.695 3zm.686-11.1c-1.752-.05-3.415-1.96-3.716-4.25-.304-2.3.87-4.06 2.62-4.01 1.75.05 3.414 1.9 3.717 4.19.302 2.3-.871 4.12-2.621 4.07zm10.877-7.87v3.05h-2.995V7h2.995v3h2.001V7H25V4.98h-2.993V1.93z"/><path d="M12.758 13.21c-.614-.44-1.788-1.5-1.788-2.12 0-.72.208-1.08 1.304-1.94 1.124-.88 1.794-1.96 1.794-3.4 0-1.7-.636-3.77-2.065-3.77h2.154l1.522-1H8.883C5.836.98 2.97 3.09 2.97 5.76c0 2.73 2.075 4.84 5.175 4.84.215 0 .424-.06.63-.07-.202.38-.345.79-.345 1.24 0 .76.41 1.36.926 1.87H8.177c-3.773 0-7.208 2.03-7.208 4.52 0 2.45 3.715 3.83 7.488 3.83 4.301 0 6.522-1.91 6.522-4.36 0-1.97-.425-3.15-2.221-4.42zM8.443 20.9c-2.607 0-4.491-1.12-4.491-3.1 0-1.94 2.335-3.56 4.943-3.53.61 0 1.175.1 1.692.27 1.416.98 2.181 1.54 2.468 2.66.052.23.083.46.083.7 0 1.98-1.028 3-4.695 3zm.686-11.1c-1.752-.05-3.415-1.96-3.716-4.25-.304-2.3.87-4.06 2.62-4.01 1.75.05 3.414 1.9 3.717 4.19.302 2.3-.871 4.12-2.621 4.07zm10.877-7.87v3.05h-2.995V7h2.995v3h2.001V7H25V4.98h-2.993V1.93z" fill="#fff"/></svg>