<svg xmlns="http://www.w3.org/2000/svg" width="25" height="23.66"><defs><filter id="a" width="200%" height="200%" x="-50%" y="-50%"><feGaussianBlur result="SvgjsFeGaussianBlur1049Out" in="SourceGraphic"/></filter></defs><path d="M1024 8156.47v8.51h-5v-8.17c0-1.68-1.2-3.35-3.17-3.35s-2.84 1.67-2.84 3.39v8.13h-5v-15h4.97v2.05c1.38-1.76 2.66-2.55 4.84-2.55 2.18 0 6.2 1.09 6.2 6.99zm-24 8.53v-15h5v15zm5.47-19.68c0 1.46-1.32 2.64-2.94 2.64-1.62 0-2.936-1.18-2.936-2.64 0-1.46 1.316-2.64 2.936-2.64 1.62 0 2.94 1.18 2.94 2.64z" fill-opacity=".1" filter="url(#a)" transform="translate(-999 -8141)"/><path d="M25 14.47v8.51h-5v-8.17c0-1.68-1.2-3.35-3.17-3.35s-2.84 1.67-2.84 3.39v8.13h-5v-15h4.97v2.05c1.38-1.76 2.66-2.55 4.84-2.55 2.18 0 6.2 1.09 6.2 6.99zM1 23V8h5v15zM6.47 3.32c0 1.46-1.32 2.64-2.94 2.64C1.91 5.96.594 4.78.594 3.32.594 1.86 1.91.68 3.53.68c1.62 0 2.94 1.18 2.94 2.64z"/><path d="M25 14.47v8.51h-5v-8.17c0-1.68-1.2-3.35-3.17-3.35s-2.84 1.67-2.84 3.39v8.13h-5v-15h4.97v2.05c1.38-1.76 2.66-2.55 4.84-2.55 2.18 0 6.2 1.09 6.2 6.99zM1 23V8h5v15zM6.47 3.32c0 1.46-1.32 2.64-2.94 2.64C1.91 5.96.594 4.78.594 3.32.594 1.86 1.91.68 3.53.68c1.62 0 2.94 1.18 2.94 2.64z"/><path d="M25 14.47v8.51h-5v-8.17c0-1.68-1.2-3.35-3.17-3.35s-2.84 1.67-2.84 3.39v8.13h-5v-15h4.97v2.05c1.38-1.76 2.66-2.55 4.84-2.55 2.18 0 6.2 1.09 6.2 6.99zM1 23V8h5v15zM6.47 3.32c0 1.46-1.32 2.64-2.94 2.64C1.91 5.96.594 4.78.594 3.32.594 1.86 1.91.68 3.53.68c1.62 0 2.94 1.18 2.94 2.64z" fill="#fff"/></svg>