<svg xmlns="http://www.w3.org/2000/svg" width="24" height="25.5"><defs><filter id="a" width="200%" height="200%" x="-50%" y="-50%"><feGaussianBlur result="SvgjsFeGaussianBlur1057Out" in="SourceGraphic"/></filter></defs><path d="M1068 8142.97c-6.63 0-12 5.37-12 12 0 4.94 2.99 9.18 7.25 11.02-.03-.83 0-1.83.21-2.74l1.55-6.56s-.38-.77-.38-1.9c0-1.79 1.03-3.12 2.32-3.12 1.09 0 1.62.82 1.62 1.81 0 1.1-.7 2.75-1.06 4.27-.3 1.28.64 2.32 1.9 2.32 2.28 0 3.82-2.93 3.82-6.4 0-2.64-1.78-4.62-5.01-4.62-3.65 0-5.93 2.73-5.93 5.77 0 1.05.31 1.79.79 2.36.23.26.26.37.17.67-.05.22-.18.76-.24.97-.08.31-.33.41-.6.3-1.68-.68-2.47-2.53-2.47-4.6 0-3.42 2.89-7.52 8.61-7.52 4.6 0 7.62 3.32 7.62 6.89 0 4.73-2.62 8.26-6.5 8.26-1.3 0-2.52-.7-2.94-1.5 0 0-.7 2.77-.84 3.31-.26.91-.74 1.83-1.2 2.55 1.05.3 2.16.46 3.31.46 6.63 0 12-5.37 12-12s-5.37-12-12-12z" fill-opacity=".1" filter="url(#a)" transform="translate(-1056 -8141)"/><path d="M12 .97c-6.63 0-12 5.37-12 12 0 4.94 2.99 9.18 7.25 11.02-.03-.83 0-1.83.21-2.74l1.55-6.56s-.38-.77-.38-1.9c0-1.79 1.03-3.12 2.32-3.12 1.09 0 1.62.82 1.62 1.81 0 1.1-.7 2.75-1.06 4.27-.3 1.28.64 2.32 1.9 2.32 2.28 0 3.82-2.93 3.82-6.4 0-2.64-1.78-4.62-5.01-4.62-3.65 0-5.93 2.73-5.93 5.77 0 1.05.31 1.79.79 2.36.23.26.26.37.17.67-.05.22-.18.76-.24.97-.08.31-.33.41-.6.3-1.68-.68-2.47-2.53-2.47-4.6C3.94 9.1 6.83 5 12.55 5c4.6 0 7.62 3.32 7.62 6.89 0 4.73-2.62 8.26-6.5 8.26-1.3 0-2.52-.7-2.94-1.5 0 0-.7 2.77-.84 3.31-.26.91-.74 1.83-1.2 2.55 1.05.3 2.16.46 3.31.46 6.63 0 12-5.37 12-12s-5.37-12-12-12z"/><path d="M12 .97c-6.63 0-12 5.37-12 12 0 4.94 2.99 9.18 7.25 11.02-.03-.83 0-1.83.21-2.74l1.55-6.56s-.38-.77-.38-1.9c0-1.79 1.03-3.12 2.32-3.12 1.09 0 1.62.82 1.62 1.81 0 1.1-.7 2.75-1.06 4.27-.3 1.28.64 2.32 1.9 2.32 2.28 0 3.82-2.93 3.82-6.4 0-2.64-1.78-4.62-5.01-4.62-3.65 0-5.93 2.73-5.93 5.77 0 1.05.31 1.79.79 2.36.23.26.26.37.17.67-.05.22-.18.76-.24.97-.08.31-.33.41-.6.3-1.68-.68-2.47-2.53-2.47-4.6C3.94 9.1 6.83 5 12.55 5c4.6 0 7.62 3.32 7.62 6.89 0 4.73-2.62 8.26-6.5 8.26-1.3 0-2.52-.7-2.94-1.5 0 0-.7 2.77-.84 3.31-.26.91-.74 1.83-1.2 2.55 1.05.3 2.16.46 3.31.46 6.63 0 12-5.37 12-12s-5.37-12-12-12z"/><path d="M12 .97c-6.63 0-12 5.37-12 12 0 4.94 2.99 9.18 7.25 11.02-.03-.83 0-1.83.21-2.74l1.55-6.56s-.38-.77-.38-1.9c0-1.79 1.03-3.12 2.32-3.12 1.09 0 1.62.82 1.62 1.81 0 1.1-.7 2.75-1.06 4.27-.3 1.28.64 2.32 1.9 2.32 2.28 0 3.82-2.93 3.82-6.4 0-2.64-1.78-4.62-5.01-4.62-3.65 0-5.93 2.73-5.93 5.77 0 1.05.31 1.79.79 2.36.23.26.26.37.17.67-.05.22-.18.76-.24.97-.08.31-.33.41-.6.3-1.68-.68-2.47-2.53-2.47-4.6C3.94 9.1 6.83 5 12.55 5c4.6 0 7.62 3.32 7.62 6.89 0 4.73-2.62 8.26-6.5 8.26-1.3 0-2.52-.7-2.94-1.5 0 0-.7 2.77-.84 3.31-.26.91-.74 1.83-1.2 2.55 1.05.3 2.16.46 3.31.46 6.63 0 12-5.37 12-12s-5.37-12-12-12z" fill="#fff"/></svg>