<svg xmlns="http://www.w3.org/2000/svg" width="24" height="25.5"><defs><filter id="a" width="200%" height="200%" x="-50%" y="-50%"><feGaussianBlur result="SvgjsFeGaussianBlur1065Out" in="SourceGraphic"/></filter></defs><path d="M741.248 8207.59c.079-.52.133-1.05.133-1.59 0-5.91-4.79-10.42-10.698-10.42-.553 0-1.091.05-1.622.14-1.066-.92-2.447-1.75-3.96-1.75a6.1 6.1 0 0 0-6.101 6.1c0 1.38.461 2.64 1.229 3.66-.157.73-.245 1.49-.245 2.27 0 5.91 4.789 10.98 10.699 10.98.759 0 1.499-.08 2.214-.23 1.071.93 2.469 1.22 4.002 1.22a6.1 6.1 0 0 0 6.101-6.1c0-1.67-.669-3.18-1.752-4.28zm-5.573 3.32c-.422.6-1.038 1.06-1.85 1.4-.812.34-1.775.51-2.887.51-1.336 0-2.436-.23-3.304-.69a4.315 4.315 0 0 1-1.499-1.34c-.384-.55-.576-1.1-.576-1.62 0-.31.115-.57.346-.79.23-.21.524-.32.881-.32.289 0 .534.08.733.25.201.17.372.42.512.76.173.39.358.72.559.99.199.26.481.48.843.66.363.17.84.25 1.43.25.812 0 1.472-.17 1.979-.52.507-.34.762-.78.762-1.3 0-.41-.137-.75-.411-1a2.604 2.604 0 0 0-1.061-.59c-.434-.14-1.013-.28-1.739-.44-.972-.2-1.786-.45-2.44-.73-.655-.28-1.175-.66-1.559-1.14-.385-.49-.576-1.09-.576-1.81 0-.68.202-1.29.609-1.82.405-.53.992-.94 1.762-1.22.769-.29 1.672-.43 2.712-.43.83 0 1.548.09 2.154.28.606.19 1.107.44 1.507.76.4.31.693.64.877.98.185.35.277.69.277 1.01 0 .3-.115.57-.346.81-.23.24-.518.36-.862.36-.315 0-.553-.07-.716-.21-.163-.15-.34-.38-.53-.71-.246-.47-.54-.84-.886-1.1-.345-.26-.898-.39-1.661-.39-.706 0-1.276.14-1.71.42-.434.29-.651.63-.651 1.04 0 .24.075.46.222.64.147.18.35.34.609.47.257.13.519.23.783.3.265.08.701.18 1.311.32.762.17 1.452.35 2.07.55.618.19 1.144.43 1.578.72.433.28.772.64 1.015 1.07.243.43.365.96.365 1.59 0 .75-.212 1.43-.632 2.03z" fill-opacity=".1" filter="url(#a)" transform="translate(-719 -8192)"/><path d="M22.248 14.59c.079-.52.133-1.05.133-1.59 0-5.91-4.79-10.42-10.698-10.42-.553 0-1.091.05-1.622.14C8.995 1.8 7.614.97 6.101.97A6.1 6.1 0 0 0 0 7.07c0 1.38.461 2.64 1.229 3.66-.157.73-.245 1.49-.245 2.27 0 5.91 4.789 10.98 10.699 10.98.759 0 1.499-.08 2.214-.23 1.071.93 2.469 1.22 4.002 1.22A6.1 6.1 0 0 0 24 18.87c0-1.67-.669-3.18-1.752-4.28zm-5.573 3.32c-.422.6-1.038 1.06-1.85 1.4-.812.34-1.775.51-2.887.51-1.336 0-2.436-.23-3.304-.69a4.315 4.315 0 0 1-1.499-1.34c-.384-.55-.576-1.1-.576-1.62 0-.31.115-.57.346-.79.23-.21.524-.32.881-.32.289 0 .534.08.733.25.201.17.372.42.512.76.173.39.358.72.559.99.199.26.481.48.843.66.363.17.84.25 1.43.25.812 0 1.472-.17 1.979-.52.507-.34.762-.78.762-1.3 0-.41-.137-.75-.411-1a2.604 2.604 0 0 0-1.061-.59c-.434-.14-1.013-.28-1.739-.44-.972-.2-1.786-.45-2.44-.73-.655-.28-1.175-.66-1.559-1.14-.385-.49-.576-1.09-.576-1.81 0-.68.202-1.29.609-1.82.405-.53.992-.94 1.762-1.22.769-.29 1.672-.43 2.712-.43.83 0 1.548.09 2.154.28.606.19 1.107.44 1.507.76.4.31.693.64.877.98.185.35.277.69.277 1.01 0 .3-.115.57-.346.81-.23.24-.518.36-.862.36-.315 0-.553-.07-.716-.21-.163-.15-.34-.38-.53-.71-.246-.47-.54-.84-.886-1.1-.345-.26-.898-.39-1.661-.39-.706 0-1.276.14-1.71.42-.434.29-.651.63-.651 1.04 0 .24.075.46.222.64.147.18.35.34.609.47.257.13.519.23.783.3.265.08.701.18 1.311.32.762.17 1.452.35 2.07.55.618.19 1.144.43 1.578.72.433.28.772.64 1.015 1.07.243.43.365.96.365 1.59 0 .75-.212 1.43-.632 2.03z"/><path d="M22.248 14.59c.079-.52.133-1.05.133-1.59 0-5.91-4.79-10.42-10.698-10.42-.553 0-1.091.05-1.622.14C8.995 1.8 7.614.97 6.101.97A6.1 6.1 0 0 0 0 7.07c0 1.38.461 2.64 1.229 3.66-.157.73-.245 1.49-.245 2.27 0 5.91 4.789 10.98 10.699 10.98.759 0 1.499-.08 2.214-.23 1.071.93 2.469 1.22 4.002 1.22A6.1 6.1 0 0 0 24 18.87c0-1.67-.669-3.18-1.752-4.28zm-5.573 3.32c-.422.6-1.038 1.06-1.85 1.4-.812.34-1.775.51-2.887.51-1.336 0-2.436-.23-3.304-.69a4.315 4.315 0 0 1-1.499-1.34c-.384-.55-.576-1.1-.576-1.62 0-.31.115-.57.346-.79.23-.21.524-.32.881-.32.289 0 .534.08.733.25.201.17.372.42.512.76.173.39.358.72.559.99.199.26.481.48.843.66.363.17.84.25 1.43.25.812 0 1.472-.17 1.979-.52.507-.34.762-.78.762-1.3 0-.41-.137-.75-.411-1a2.604 2.604 0 0 0-1.061-.59c-.434-.14-1.013-.28-1.739-.44-.972-.2-1.786-.45-2.44-.73-.655-.28-1.175-.66-1.559-1.14-.385-.49-.576-1.09-.576-1.81 0-.68.202-1.29.609-1.82.405-.53.992-.94 1.762-1.22.769-.29 1.672-.43 2.712-.43.83 0 1.548.09 2.154.28.606.19 1.107.44 1.507.76.4.31.693.64.877.98.185.35.277.69.277 1.01 0 .3-.115.57-.346.81-.23.24-.518.36-.862.36-.315 0-.553-.07-.716-.21-.163-.15-.34-.38-.53-.71-.246-.47-.54-.84-.886-1.1-.345-.26-.898-.39-1.661-.39-.706 0-1.276.14-1.71.42-.434.29-.651.63-.651 1.04 0 .24.075.46.222.64.147.18.35.34.609.47.257.13.519.23.783.3.265.08.701.18 1.311.32.762.17 1.452.35 2.07.55.618.19 1.144.43 1.578.72.433.28.772.64 1.015 1.07.243.43.365.96.365 1.59 0 .75-.212 1.43-.632 2.03z"/><path d="M22.248 14.59c.079-.52.133-1.05.133-1.59 0-5.91-4.79-10.42-10.698-10.42-.553 0-1.091.05-1.622.14C8.995 1.8 7.614.97 6.101.97A6.1 6.1 0 0 0 0 7.07c0 1.38.461 2.64 1.229 3.66-.157.73-.245 1.49-.245 2.27 0 5.91 4.789 10.98 10.699 10.98.759 0 1.499-.08 2.214-.23 1.071.93 2.469 1.22 4.002 1.22A6.1 6.1 0 0 0 24 18.87c0-1.67-.669-3.18-1.752-4.28zm-5.573 3.32c-.422.6-1.038 1.06-1.85 1.4-.812.34-1.775.51-2.887.51-1.336 0-2.436-.23-3.304-.69a4.315 4.315 0 0 1-1.499-1.34c-.384-.55-.576-1.1-.576-1.62 0-.31.115-.57.346-.79.23-.21.524-.32.881-.32.289 0 .534.08.733.25.201.17.372.42.512.76.173.39.358.72.559.99.199.26.481.48.843.66.363.17.84.25 1.43.25.812 0 1.472-.17 1.979-.52.507-.34.762-.78.762-1.3 0-.41-.137-.75-.411-1a2.604 2.604 0 0 0-1.061-.59c-.434-.14-1.013-.28-1.739-.44-.972-.2-1.786-.45-2.44-.73-.655-.28-1.175-.66-1.559-1.14-.385-.49-.576-1.09-.576-1.81 0-.68.202-1.29.609-1.82.405-.53.992-.94 1.762-1.22.769-.29 1.672-.43 2.712-.43.83 0 1.548.09 2.154.28.606.19 1.107.44 1.507.76.4.31.693.64.877.98.185.35.277.69.277 1.01 0 .3-.115.57-.346.81-.23.24-.518.36-.862.36-.315 0-.553-.07-.716-.21-.163-.15-.34-.38-.53-.71-.246-.47-.54-.84-.886-1.1-.345-.26-.898-.39-1.661-.39-.706 0-1.276.14-1.71.42-.434.29-.651.63-.651 1.04 0 .24.075.46.222.64.147.18.35.34.609.47.257.13.519.23.783.3.265.08.701.18 1.311.32.762.17 1.452.35 2.07.55.618.19 1.144.43 1.578.72.433.28.772.64 1.015 1.07.243.43.365.96.365 1.59 0 .75-.212 1.43-.632 2.03z" fill="#fff"/></svg>