<svg xmlns="http://www.w3.org/2000/svg" width="16" height="25.5"><defs><filter id="a" width="200%" height="200%" x="-50%" y="-50%"><feGaussianBlur result="SvgjsFeGaussianBlur1105Out" in="SourceGraphic"/></filter></defs><path d="M1016.18 8214.04c-2.06 0-3.17-1.6-3.17-2.84v-7.19h4.99v-4.05h-4.99v-5.99h-3.49c0 5.21-4.53 6.18-4.53 6.18v3.81h3.01v8.57c0 2.97 2.74 5.44 6.08 5.44 3.33 0 4.93-1.33 4.93-1.33v-3.93s-.77 1.33-2.83 1.33z" fill-opacity=".1" filter="url(#a)" transform="translate(-1004 -8192)"/><path d="M12.18 21.04c-2.06 0-3.17-1.6-3.17-2.84v-7.19H14V6.96H9.01V.97H5.52C5.52 6.18.99 7.15.99 7.15v3.81H4v8.57c0 2.97 2.74 5.44 6.08 5.44 3.33 0 4.93-1.33 4.93-1.33v-3.93s-.77 1.33-2.83 1.33z"/><path d="M12.18 21.04c-2.06 0-3.17-1.6-3.17-2.84v-7.19H14V6.96H9.01V.97H5.52C5.52 6.18.99 7.15.99 7.15v3.81H4v8.57c0 2.97 2.74 5.44 6.08 5.44 3.33 0 4.93-1.33 4.93-1.33v-3.93s-.77 1.33-2.83 1.33z"/><path d="M12.18 21.04c-2.06 0-3.17-1.6-3.17-2.84v-7.19H14V6.96H9.01V.97H5.52C5.52 6.18.99 7.15.99 7.15v3.81H4v8.57c0 2.97 2.74 5.44 6.08 5.44 3.33 0 4.93-1.33 4.93-1.33v-3.93s-.77 1.33-2.83 1.33z" fill="#fff"/></svg>