<svg xmlns="http://www.w3.org/2000/svg" width="24" height="20.83"><defs><filter id="a" width="200%" height="200%" x="-50%" y="-50%"><feGaussianBlur result="SvgjsFeGaussianBlur1009Out" in="SourceGraphic"/></filter></defs><path d="M744 8148.84c-.404.23-1.617.67-2.746.78.724-.39 1.798-1.67 2.062-2.69-.697.45-2.297 1.1-3.087 1.1-.902-.94-2.171-1.69-3.579-1.69-2.734 0-4.732 2.38-4.732 5.11 0 .38.044.75.125 1.11h-.001c-3.709-.1-7.983-2.15-10.426-5.33-1.501 2.6-.202 5.68 1.502 6.73-.583.04-1.657-.07-2.162-.56-.034 1.72.795 4.01 3.819 4.84-.582.31-1.613.22-2.061.16.157 1.45 2.196 3.36 4.426 3.36-.795.91-3.784 2.58-7.14 2.05a14.843 14.843 0 0 0 7.745 2.19c7.988 0 14.535-6.47 14.201-14.46l-.002-.03.002-.06-.003-.07c.728-.5 1.36-1.38 2.057-2.54z" fill-opacity=".1" filter="url(#a)" transform="translate(-720 -8145)"/><path d="M24 2.84c-.404.23-1.617.67-2.746.78.724-.39 1.798-1.67 2.062-2.69-.697.45-2.297 1.1-3.087 1.1-.902-.94-2.171-1.69-3.579-1.69-2.734 0-4.732 2.38-4.732 5.11 0 .38.044.75.125 1.11h-.001c-3.709-.1-7.983-2.15-10.426-5.33-1.501 2.6-.202 5.68 1.502 6.73C2.535 8 1.461 7.89.956 7.4c-.034 1.72.795 4.01 3.819 4.84-.582.31-1.613.22-2.061.16.157 1.45 2.196 3.36 4.426 3.36-.795.91-3.784 2.58-7.14 2.05A14.843 14.843 0 0 0 7.745 20c7.988 0 14.535-6.47 14.201-14.46l-.002-.03.002-.06-.003-.07c.728-.5 1.36-1.38 2.057-2.54z"/><path d="M24 2.84c-.404.23-1.617.67-2.746.78.724-.39 1.798-1.67 2.062-2.69-.697.45-2.297 1.1-3.087 1.1-.902-.94-2.171-1.69-3.579-1.69-2.734 0-4.732 2.38-4.732 5.11 0 .38.044.75.125 1.11h-.001c-3.709-.1-7.983-2.15-10.426-5.33-1.501 2.6-.202 5.68 1.502 6.73C2.535 8 1.461 7.89.956 7.4c-.034 1.72.795 4.01 3.819 4.84-.582.31-1.613.22-2.061.16.157 1.45 2.196 3.36 4.426 3.36-.795.91-3.784 2.58-7.14 2.05A14.843 14.843 0 0 0 7.745 20c7.988 0 14.535-6.47 14.201-14.46l-.002-.03.002-.06-.003-.07c.728-.5 1.36-1.38 2.057-2.54z"/><path d="M24 2.84c-.404.23-1.617.67-2.746.78.724-.39 1.798-1.67 2.062-2.69-.697.45-2.297 1.1-3.087 1.1-.902-.94-2.171-1.69-3.579-1.69-2.734 0-4.732 2.38-4.732 5.11 0 .38.044.75.125 1.11h-.001c-3.709-.1-7.983-2.15-10.426-5.33-1.501 2.6-.202 5.68 1.502 6.73C2.535 8 1.461 7.89.956 7.4c-.034 1.72.795 4.01 3.819 4.84-.582.31-1.613.22-2.061.16.157 1.45 2.196 3.36 4.426 3.36-.795.91-3.784 2.58-7.14 2.05A14.843 14.843 0 0 0 7.745 20c7.988 0 14.535-6.47 14.201-14.46l-.002-.03.002-.06-.003-.07c.728-.5 1.36-1.38 2.057-2.54z" fill="#fff"/></svg>