<svg xmlns="http://www.w3.org/2000/svg" width="24" height="21.98"><defs><filter id="a" width="200%" height="200%" x="-50%" y="-50%"><feGaussianBlur result="SvgjsFeGaussianBlur1097Out" in="SourceGraphic"/></filter></defs><path d="M943 8202.75c2.111-1.65 5.116-4.77 7.458-4.77 2.34 0 2.913 2.2 3.234 4.66.323 2.45 1.24 7.82 2.478 7.82 1.24 0 4.061-4.75 3.901-6.58-.16-1.84-2.202-1.56-3.327-1.04 1.032-3.67 3.42-5.84 6.47-5.84 3.052 0 3.786 2.33 3.786 4.93 0 3.94-8.168 16.03-13.1 16.03-3.053 0-3.81-4.4-4.428-6.58-.619-2.18-1.835-7.89-3.259-8.26-.551-.09-2.111 1.12-2.111 1.12z" fill-opacity=".1" filter="url(#a)" transform="translate(-943 -8196)"/><path d="M0 5.75C2.111 4.1 5.116.98 7.458.98c2.34 0 2.913 2.2 3.234 4.66.323 2.45 1.24 7.82 2.478 7.82 1.24 0 4.061-4.75 3.901-6.58-.16-1.84-2.202-1.56-3.327-1.04C14.776 2.17 17.164 0 20.214 0 23.266 0 24 2.33 24 4.93c0 3.94-8.168 16.03-13.1 16.03-3.053 0-3.81-4.4-4.428-6.58-.619-2.18-1.835-7.89-3.259-8.26-.551-.09-2.111 1.12-2.111 1.12z"/><path d="M0 5.75C2.111 4.1 5.116.98 7.458.98c2.34 0 2.913 2.2 3.234 4.66.323 2.45 1.24 7.82 2.478 7.82 1.24 0 4.061-4.75 3.901-6.58-.16-1.84-2.202-1.56-3.327-1.04C14.776 2.17 17.164 0 20.214 0 23.266 0 24 2.33 24 4.93c0 3.94-8.168 16.03-13.1 16.03-3.053 0-3.81-4.4-4.428-6.58-.619-2.18-1.835-7.89-3.259-8.26-.551-.09-2.111 1.12-2.111 1.12z"/><path d="M0 5.75C2.111 4.1 5.116.98 7.458.98c2.34 0 2.913 2.2 3.234 4.66.323 2.45 1.24 7.82 2.478 7.82 1.24 0 4.061-4.75 3.901-6.58-.16-1.84-2.202-1.56-3.327-1.04C14.776 2.17 17.164 0 20.214 0 23.266 0 24 2.33 24 4.93c0 3.94-8.168 16.03-13.1 16.03-3.053 0-3.81-4.4-4.428-6.58-.619-2.18-1.835-7.89-3.259-8.26-.551-.09-2.111 1.12-2.111 1.12z" fill="#fff"/></svg>