<svg xmlns="http://www.w3.org/2000/svg" width="24" height="14.505"><defs><filter id="a" width="200%" height="200%" x="-50%" y="-50%"><feGaussianBlur result="SvgjsFeGaussianBlur1081Out" in="SourceGraphic"/></filter></defs><path d="M832 8199.97v2.02h1.705c.564 0 1.215.64 1.78 1.2.566.56 4.482 4.83 4.482 4.83l.025 3.52s-.294.51-1.424.51c-1.129 0-1.562.09-1.562.09v.83h8.945v-.61s-.26-.39-.476-.39h-2.122c-.259 0-.347-.3-.347-.69v-3.05l5.031-4.58s.781-.47 1.346-.47h1.301l.48-1.22h-8.154l.086.92.478.26 2.117.09s.131.47-.216.73c-.348.25-3.432 3.07-3.432 3.07l-3.908-4.92s.087-.13.65-.13h2.217v-2.01zm20.016 1l-.044 8.14 1.476.08 2.083-7.96zm-.011 10.06v1.95h2.077l.101-2z" fill-opacity=".1" filter="url(#a)" transform="translate(-832 -8198)"/><path d="M0 .97v2.02h1.705c.564 0 1.215.64 1.78 1.2.566.56 4.482 4.83 4.482 4.83l.025 3.52s-.294.51-1.424.51c-1.129 0-1.562.09-1.562.09v.83h8.945v-.61s-.26-.39-.476-.39h-2.122c-.259 0-.347-.3-.347-.69V9.23l5.031-4.58s.781-.47 1.346-.47h1.301l.48-1.22H11.01l.086.92.478.26 2.117.09s.131.47-.216.73c-.348.25-3.432 3.07-3.432 3.07L6.135 3.11s.087-.13.65-.13h2.217V.97zm20.016 1l-.044 8.14 1.476.08 2.083-7.96zm-.011 10.06v1.95h2.077l.101-2z"/><path d="M0 .97v2.02h1.705c.564 0 1.215.64 1.78 1.2.566.56 4.482 4.83 4.482 4.83l.025 3.52s-.294.51-1.424.51c-1.129 0-1.562.09-1.562.09v.83h8.945v-.61s-.26-.39-.476-.39h-2.122c-.259 0-.347-.3-.347-.69V9.23l5.031-4.58s.781-.47 1.346-.47h1.301l.48-1.22H11.01l.086.92.478.26 2.117.09s.131.47-.216.73c-.348.25-3.432 3.07-3.432 3.07L6.135 3.11s.087-.13.65-.13h2.217V.97zm20.016 1l-.044 8.14 1.476.08 2.083-7.96zm-.011 10.06v1.95h2.077l.101-2z"/><path d="M0 .97v2.02h1.705c.564 0 1.215.64 1.78 1.2.566.56 4.482 4.83 4.482 4.83l.025 3.52s-.294.51-1.424.51c-1.129 0-1.562.09-1.562.09v.83h8.945v-.61s-.26-.39-.476-.39h-2.122c-.259 0-.347-.3-.347-.69V9.23l5.031-4.58s.781-.47 1.346-.47h1.301l.48-1.22H11.01l.086.92.478.26 2.117.09s.131.47-.216.73c-.348.25-3.432 3.07-3.432 3.07L6.135 3.11s.087-.13.65-.13h2.217V.97zm20.016 1l-.044 8.14 1.476.08 2.083-7.96zm-.011 10.06v1.95h2.077l.101-2z" fill="#fff"/></svg>