<svg id="SvgjsSvg1085" xmlns="http://www.w3.org/2000/svg" version="1.1" xmlns:xlink="http://www.w3.org/1999/xlink" xmlns:svgjs="http://svgjs.com/svgjs" width="24" height="25"><defs id="SvgjsDefs1086"><filter id="SvgjsFilter1088" width="200%" height="200%" x="-50%" y="-50%"><feGaussianBlur id="SvgjsFeGaussianBlur1089" stdDeviation="0 " result="SvgjsFeGaussianBlur1089Out" in="SourceGraphic"></feGaussianBlur></filter></defs><path id="SvgjsPath1087" d="M905.985 8207.29C905.985 8205.820000000002 905.985 8200.77 905.985 8199.410000000002C905.985 8198.060000000001 904.6750000000001 8195.000000000002 899.967 8195.000000000002C895.262 8195.000000000002 892.76 8197.940000000002 892.76 8200.590000000002L896.692 8200.970000000001C896.692 8200.970000000001 897.569 8198.29 899.602 8198.29C901.635 8198.29 902.004 8199.94 902.004 8200.300000000001C902.004 8200.390000000001 902.004 8201.070000000002 902.004 8202.01C899.4 8202.1 892.0020000000001 8202.84 892.0020000000001 8208.29C892.0020000000001 8214.160000000002 899.8270000000001 8214.410000000002 902.2560000000001 8210.62C902.3500000000001 8210.77 902.4560000000001 8210.92 902.589 8211.060000000001C903.4830000000001 8212.000000000002 904.6750000000001 8213.12 904.6750000000001 8213.12L907.711 8210.12C907.711 8210.12 905.985 8208.76 905.985 8207.29ZM888.234 8213.59C889.544 8215.18 893.832 8219 899.432 8219C905.033 8219 908.368 8215.94 908.784 8215.41C909.2 8214.88 908.906 8214.59 908.487 8214.76C898.5989999999999 8219.47 892.461 8215.53 888.533 8213.14C888.289 8212.99 887.876 8213.18 888.234 8213.59ZM896.989 8207.57C896.989 8205.05 900.1940000000001 8204.539999999999 902.004 8204.48C902.004 8205.23 902.004 8205.99 902.004 8206.65C902.004 8210.94 896.989 8210.289999999999 896.989 8207.57ZM911.264 8213.23C910.998 8212.88 909.65 8212.82 908.801 8212.92C907.951 8213.02 906.673 8213.55 906.7850000000001 8213.86C906.84 8213.970000000001 906.9570000000001 8213.92 907.541 8213.87C908.1260000000001 8213.810000000001 909.767 8213.6 910.11 8214.050000000001C910.4540000000001 8214.500000000002 909.585 8216.650000000001 909.428 8216.990000000002C909.275 8217.340000000002 909.487 8217.430000000002 909.774 8217.2C910.057 8216.970000000001 910.571 8216.37 910.915 8215.52C911.2579999999999 8214.68 911.466 8213.49 911.264 8213.23Z " fill="#000000" fill-opacity="0.1" filter="url(#SvgjsFilter1088)" transform="matrix(1,0,0,1,-888,-8194)"></path><path id="SvgjsPath1090" d="M905.985 8206.29C905.985 8204.820000000002 905.985 8199.77 905.985 8198.410000000002C905.985 8197.060000000001 904.6750000000001 8194.000000000002 899.967 8194.000000000002C895.262 8194.000000000002 892.76 8196.940000000002 892.76 8199.590000000002L896.692 8199.970000000001C896.692 8199.970000000001 897.569 8197.29 899.602 8197.29C901.635 8197.29 902.004 8198.94 902.004 8199.300000000001C902.004 8199.390000000001 902.004 8200.070000000002 902.004 8201.01C899.4 8201.1 892.0020000000001 8201.84 892.0020000000001 8207.29C892.0020000000001 8213.160000000002 899.8270000000001 8213.410000000002 902.2560000000001 8209.62C902.3500000000001 8209.77 902.4560000000001 8209.92 902.589 8210.060000000001C903.4830000000001 8211.000000000002 904.6750000000001 8212.12 904.6750000000001 8212.12L907.711 8209.12C907.711 8209.12 905.985 8207.76 905.985 8206.29ZM888.234 8212.59C889.544 8214.18 893.832 8218 899.432 8218C905.033 8218 908.368 8214.94 908.784 8214.41C909.2 8213.88 908.906 8213.59 908.487 8213.76C898.5989999999999 8218.47 892.461 8214.53 888.533 8212.14C888.289 8211.99 887.876 8212.18 888.234 8212.59ZM896.989 8206.57C896.989 8204.05 900.1940000000001 8203.539999999999 902.004 8203.48C902.004 8204.23 902.004 8204.99 902.004 8205.65C902.004 8209.94 896.989 8209.289999999999 896.989 8206.57ZM911.264 8212.23C910.998 8211.88 909.65 8211.82 908.801 8211.92C907.951 8212.02 906.673 8212.55 906.7850000000001 8212.86C906.84 8212.970000000001 906.9570000000001 8212.92 907.541 8212.87C908.1260000000001 8212.810000000001 909.767 8212.6 910.11 8213.050000000001C910.4540000000001 8213.500000000002 909.585 8215.650000000001 909.428 8215.990000000002C909.275 8216.340000000002 909.487 8216.430000000002 909.774 8216.2C910.057 8215.970000000001 910.571 8215.37 910.915 8214.52C911.2579999999999 8213.68 911.466 8212.49 911.264 8212.23Z " fill="#000000" transform="matrix(1,0,0,1,-888,-8194)"></path><path id="SvgjsPath1091" d="M905.985 8206.29C905.985 8204.820000000002 905.985 8199.77 905.985 8198.410000000002C905.985 8197.060000000001 904.6750000000001 8194.000000000002 899.967 8194.000000000002C895.262 8194.000000000002 892.76 8196.940000000002 892.76 8199.590000000002L896.692 8199.970000000001C896.692 8199.970000000001 897.569 8197.29 899.602 8197.29C901.635 8197.29 902.004 8198.94 902.004 8199.300000000001C902.004 8199.390000000001 902.004 8200.070000000002 902.004 8201.01C899.4 8201.1 892.0020000000001 8201.84 892.0020000000001 8207.29C892.0020000000001 8213.160000000002 899.8270000000001 8213.410000000002 902.2560000000001 8209.62C902.3500000000001 8209.77 902.4560000000001 8209.92 902.589 8210.060000000001C903.4830000000001 8211.000000000002 904.6750000000001 8212.12 904.6750000000001 8212.12L907.711 8209.12C907.711 8209.12 905.985 8207.76 905.985 8206.29ZM888.234 8212.59C889.544 8214.18 893.832 8218 899.432 8218C905.033 8218 908.368 8214.94 908.784 8214.41C909.2 8213.88 908.906 8213.59 908.487 8213.76C898.5989999999999 8218.47 892.461 8214.53 888.533 8212.14C888.289 8211.99 887.876 8212.18 888.234 8212.59ZM896.989 8206.57C896.989 8204.05 900.1940000000001 8203.539999999999 902.004 8203.48C902.004 8204.23 902.004 8204.99 902.004 8205.65C902.004 8209.94 896.989 8209.289999999999 896.989 8206.57ZM911.264 8212.23C910.998 8211.88 909.65 8211.82 908.801 8211.92C907.951 8212.02 906.673 8212.55 906.7850000000001 8212.86C906.84 8212.970000000001 906.9570000000001 8212.92 907.541 8212.87C908.1260000000001 8212.810000000001 909.767 8212.6 910.11 8213.050000000001C910.4540000000001 8213.500000000002 909.585 8215.650000000001 909.428 8215.990000000002C909.275 8216.340000000002 909.487 8216.430000000002 909.774 8216.2C910.057 8215.970000000001 910.571 8215.37 910.915 8214.52C911.2579999999999 8213.68 911.466 8212.49 911.264 8212.23Z " fill="#000000" transform="matrix(1,0,0,1,-888,-8194)"></path><path id="SvgjsPath1092" d="M905.985 8206.29C905.985 8204.820000000002 905.985 8199.77 905.985 8198.410000000002C905.985 8197.060000000001 904.6750000000001 8194.000000000002 899.967 8194.000000000002C895.262 8194.000000000002 892.76 8196.940000000002 892.76 8199.590000000002L896.692 8199.970000000001C896.692 8199.970000000001 897.569 8197.29 899.602 8197.29C901.635 8197.29 902.004 8198.94 902.004 8199.300000000001C902.004 8199.390000000001 902.004 8200.070000000002 902.004 8201.01C899.4 8201.1 892.0020000000001 8201.84 892.0020000000001 8207.29C892.0020000000001 8213.160000000002 899.8270000000001 8213.410000000002 902.2560000000001 8209.62C902.3500000000001 8209.77 902.4560000000001 8209.92 902.589 8210.060000000001C903.4830000000001 8211.000000000002 904.6750000000001 8212.12 904.6750000000001 8212.12L907.711 8209.12C907.711 8209.12 905.985 8207.76 905.985 8206.29ZM888.234 8212.59C889.544 8214.18 893.832 8218 899.432 8218C905.033 8218 908.368 8214.94 908.784 8214.41C909.2 8213.88 908.906 8213.59 908.487 8213.76C898.5989999999999 8218.47 892.461 8214.53 888.533 8212.14C888.289 8211.99 887.876 8212.18 888.234 8212.59ZM896.989 8206.57C896.989 8204.05 900.1940000000001 8203.539999999999 902.004 8203.48C902.004 8204.23 902.004 8204.99 902.004 8205.65C902.004 8209.94 896.989 8209.289999999999 896.989 8206.57ZM911.264 8212.23C910.998 8211.88 909.65 8211.82 908.801 8211.92C907.951 8212.02 906.673 8212.55 906.7850000000001 8212.86C906.84 8212.970000000001 906.9570000000001 8212.92 907.541 8212.87C908.1260000000001 8212.810000000001 909.767 8212.6 910.11 8213.050000000001C910.4540000000001 8213.500000000002 909.585 8215.650000000001 909.428 8215.990000000002C909.275 8216.340000000002 909.487 8216.430000000002 909.774 8216.2C910.057 8215.970000000001 910.571 8215.37 910.915 8214.52C911.2579999999999 8213.68 911.466 8212.49 911.264 8212.23Z " fill="#ffffff" fill-opacity="1" transform="matrix(1,0,0,1,-888,-8194)"></path></svg>