<svg id="SvgjsSvg1069" xmlns="http://www.w3.org/2000/svg" version="1.1" xmlns:xlink="http://www.w3.org/1999/xlink" xmlns:svgjs="http://svgjs.com/svgjs" width="24" height="16.639999999999418"><defs id="SvgjsDefs1070"><filter id="SvgjsFilter1072" width="200%" height="200%" x="-50%" y="-50%"><feGaussianBlur id="SvgjsFeGaussianBlur1073" stdDeviation="0 " result="SvgjsFeGaussianBlur1073Out" in="SourceGraphic"></feGaussianBlur></filter></defs><path id="SvgjsPath1071" d="M776 8198L783.007 8198C785.842 8198 787.76 8199.02 787.76 8201.79C787.76 8203.25 787.03 8204.27 785.736 8204.900000000001C787.552 8205.420000000002 788.4689999999999 8206.810000000001 788.4689999999999 8208.670000000002C788.4689999999999 8211.690000000002 785.9029999999999 8212.990000000002 783.2139999999999 8212.990000000002L775.9999999999999 8212.990000000002ZM792.207 8207.97C792.29 8209.849999999999 793.207 8211.05 794.853 8211.05C796.043 8211.05 797.1279999999999 8210.07 797.3149999999999 8209.4L799.9209999999999 8209.4C799.088 8211.94 797.1899999999999 8213.279999999999 794.7499999999999 8213.279999999999C791.3519999999999 8213.279999999999 789.2149999999999 8210.939999999999 789.2149999999999 8207.609999999999C789.2149999999999 8204.369999999999 791.4769999999999 8201.909999999998 794.7499999999999 8201.909999999998C798.4189999999999 8201.909999999998 800.1909999999999 8204.659999999998 799.9829999999998 8207.969999999998ZM778.993 8210.57L782.7760000000001 8210.57C784.0690000000001 8210.57 785.1010000000001 8210.15 785.1010000000001 8208.61C785.1010000000001 8207.08 784.2360000000001 8206.480000000001 782.8390000000002 8206.480000000001L778.9930000000002 8206.480000000001ZM778.993 8204L782.589 8204C783.735 8204 784.591 8203.48 784.591 8202.23C784.591 8200.81 783.506 8200.52 782.339 8200.52L778.993 8200.52ZM797.023 8206.03C796.7520000000001 8204.53 796.105 8204.150000000001 794.666 8204.150000000001C792.7900000000001 8204.150000000001 792.248 8205.2 792.2070000000001 8206.03ZM792 8201L792 8199L798 8199L798 8201Z " fill="#000000" fill-opacity="0.1" filter="url(#SvgjsFilter1072)" transform="matrix(1,0,0,1,-776,-8197)"></path><path id="SvgjsPath1074" d="M776 8197L783.007 8197C785.842 8197 787.76 8198.02 787.76 8200.79C787.76 8202.25 787.03 8203.27 785.736 8203.900000000001C787.552 8204.420000000002 788.4689999999999 8205.810000000001 788.4689999999999 8207.670000000002C788.4689999999999 8210.690000000002 785.9029999999999 8211.990000000002 783.2139999999999 8211.990000000002L775.9999999999999 8211.990000000002ZM792.207 8206.97C792.29 8208.849999999999 793.207 8210.05 794.853 8210.05C796.043 8210.05 797.1279999999999 8209.07 797.3149999999999 8208.4L799.9209999999999 8208.4C799.088 8210.94 797.1899999999999 8212.279999999999 794.7499999999999 8212.279999999999C791.3519999999999 8212.279999999999 789.2149999999999 8209.939999999999 789.2149999999999 8206.609999999999C789.2149999999999 8203.369999999999 791.4769999999999 8200.909999999998 794.7499999999999 8200.909999999998C798.4189999999999 8200.909999999998 800.1909999999999 8203.659999999998 799.9829999999998 8206.969999999998ZM778.993 8209.57L782.7760000000001 8209.57C784.0690000000001 8209.57 785.1010000000001 8209.15 785.1010000000001 8207.61C785.1010000000001 8206.08 784.2360000000001 8205.480000000001 782.8390000000002 8205.480000000001L778.9930000000002 8205.480000000001ZM778.993 8203L782.589 8203C783.735 8203 784.591 8202.48 784.591 8201.23C784.591 8199.81 783.506 8199.52 782.339 8199.52L778.993 8199.52ZM797.023 8205.03C796.7520000000001 8203.53 796.105 8203.150000000001 794.666 8203.150000000001C792.7900000000001 8203.150000000001 792.248 8204.2 792.2070000000001 8205.03ZM792 8200L792 8198L798 8198L798 8200Z " fill="#000000" transform="matrix(1,0,0,1,-776,-8197)"></path><path id="SvgjsPath1075" d="M776 8197L783.007 8197C785.842 8197 787.76 8198.02 787.76 8200.79C787.76 8202.25 787.03 8203.27 785.736 8203.900000000001C787.552 8204.420000000002 788.4689999999999 8205.810000000001 788.4689999999999 8207.670000000002C788.4689999999999 8210.690000000002 785.9029999999999 8211.990000000002 783.2139999999999 8211.990000000002L775.9999999999999 8211.990000000002ZM792.207 8206.97C792.29 8208.849999999999 793.207 8210.05 794.853 8210.05C796.043 8210.05 797.1279999999999 8209.07 797.3149999999999 8208.4L799.9209999999999 8208.4C799.088 8210.94 797.1899999999999 8212.279999999999 794.7499999999999 8212.279999999999C791.3519999999999 8212.279999999999 789.2149999999999 8209.939999999999 789.2149999999999 8206.609999999999C789.2149999999999 8203.369999999999 791.4769999999999 8200.909999999998 794.7499999999999 8200.909999999998C798.4189999999999 8200.909999999998 800.1909999999999 8203.659999999998 799.9829999999998 8206.969999999998ZM778.993 8209.57L782.7760000000001 8209.57C784.0690000000001 8209.57 785.1010000000001 8209.15 785.1010000000001 8207.61C785.1010000000001 8206.08 784.2360000000001 8205.480000000001 782.8390000000002 8205.480000000001L778.9930000000002 8205.480000000001ZM778.993 8203L782.589 8203C783.735 8203 784.591 8202.48 784.591 8201.23C784.591 8199.81 783.506 8199.52 782.339 8199.52L778.993 8199.52ZM797.023 8205.03C796.7520000000001 8203.53 796.105 8203.150000000001 794.666 8203.150000000001C792.7900000000001 8203.150000000001 792.248 8204.2 792.2070000000001 8205.03ZM792 8200L792 8198L798 8198L798 8200Z " fill="#000000" transform="matrix(1,0,0,1,-776,-8197)"></path><path id="SvgjsPath1076" d="M776 8197L783.007 8197C785.842 8197 787.76 8198.02 787.76 8200.79C787.76 8202.25 787.03 8203.27 785.736 8203.900000000001C787.552 8204.420000000002 788.4689999999999 8205.810000000001 788.4689999999999 8207.670000000002C788.4689999999999 8210.690000000002 785.9029999999999 8211.990000000002 783.2139999999999 8211.990000000002L775.9999999999999 8211.990000000002ZM792.207 8206.97C792.29 8208.849999999999 793.207 8210.05 794.853 8210.05C796.043 8210.05 797.1279999999999 8209.07 797.3149999999999 8208.4L799.9209999999999 8208.4C799.088 8210.94 797.1899999999999 8212.279999999999 794.7499999999999 8212.279999999999C791.3519999999999 8212.279999999999 789.2149999999999 8209.939999999999 789.2149999999999 8206.609999999999C789.2149999999999 8203.369999999999 791.4769999999999 8200.909999999998 794.7499999999999 8200.909999999998C798.4189999999999 8200.909999999998 800.1909999999999 8203.659999999998 799.9829999999998 8206.969999999998ZM778.993 8209.57L782.7760000000001 8209.57C784.0690000000001 8209.57 785.1010000000001 8209.15 785.1010000000001 8207.61C785.1010000000001 8206.08 784.2360000000001 8205.480000000001 782.8390000000002 8205.480000000001L778.9930000000002 8205.480000000001ZM778.993 8203L782.589 8203C783.735 8203 784.591 8202.48 784.591 8201.23C784.591 8199.81 783.506 8199.52 782.339 8199.52L778.993 8199.52ZM797.023 8205.03C796.7520000000001 8203.53 796.105 8203.150000000001 794.666 8203.150000000001C792.7900000000001 8203.150000000001 792.248 8204.2 792.2070000000001 8205.03ZM792 8200L792 8198L798 8198L798 8200Z " fill="#ffffff" fill-opacity="1" transform="matrix(1,0,0,1,-776,-8197)"></path></svg>