<svg id="SvgjsSvg1037" xmlns="http://www.w3.org/2000/svg" version="1.1" xmlns:xlink="http://www.w3.org/1999/xlink" xmlns:svgjs="http://svgjs.com/svgjs" width="24" height="24.520000000000437"><defs id="SvgjsDefs1038"><filter id="SvgjsFilter1040" width="200%" height="200%" x="-50%" y="-50%"><feGaussianBlur id="SvgjsFeGaussianBlur1041" stdDeviation="0 " result="SvgjsFeGaussianBlur1041Out" in="SourceGraphic"></feGaussianBlur></filter></defs><path id="SvgjsPath1039" d="M956 8143.48C949.638 8143.48 944.48 8148.639999999999 944.48 8155C944.48 8161.36 949.638 8166.52 956 8166.52C962.362 8166.52 967.52 8161.360000000001 967.52 8155C967.52 8148.64 962.362 8143.48 956 8143.48ZM946.378 8155C946.378 8154.9 946.3820000000001 8154.79 946.3860000000001 8154.69C946.4030000000001 8154.69 946.421 8154.69 946.4380000000001 8154.69C949.8660000000001 8154.69 953.2710000000001 8154.469999999999 956.3230000000001 8153.57C956.551 8154.03 956.7740000000001 8154.5 956.993 8154.99C952.9770000000001 8156.17 950.474 8158.8099999999995 948.759 8161.33C947.278 8159.63 946.378 8157.42 946.378 8155ZM950.161 8162.64C951.785 8160.1900000000005 954.049 8157.77 957.732 8156.76C958.593 8158.96 959.294 8161.37 959.665 8163.900000000001C958.534 8164.360000000001 957.2969999999999 8164.620000000001 956 8164.620000000001C953.805 8164.620000000001 951.781 8163.880000000001 950.161 8162.640000000001ZM951.863 8146.31C952.844 8147.620000000001 954.147 8149.52 955.423 8151.84C952.72 8152.58 949.697 8152.78 946.6370000000001 8152.79C947.312 8149.93 949.267 8147.56 951.863 8146.31ZM962.234 8147.68C960.878 8149.33 959.1750000000001 8150.46 957.248 8151.2300000000005C956.0150000000001 8148.950000000001 954.7460000000001 8147.040000000001 953.7330000000001 8145.650000000001C954.46 8145.47 955.219 8145.38 956.0000000000001 8145.38C958.3770000000001 8145.38 960.5530000000001 8146.25 962.2340000000002 8147.68ZM963.559 8149.06C964.797 8150.63 965.5559999999999 8152.59 965.616 8154.7300000000005C963.031 8154.280000000001 960.802 8154.26 958.876 8154.570000000001C958.631 8154.01 958.38 8153.47 958.1229999999999 8152.9400000000005C960.188 8152.09 962.04 8150.85 963.559 8149.06ZM961.435 8162.94C961.0419999999999 8160.629999999999 960.396 8158.419999999999 959.6199999999999 8156.379999999999C961.3029999999999 8156.169999999999 963.2389999999999 8156.219999999999 965.4809999999999 8156.629999999999C965.0329999999999 8159.239999999999 963.5339999999999 8161.489999999999 961.4349999999998 8162.94Z " fill="#000000" fill-opacity="0.1" filter="url(#SvgjsFilter1040)" transform="matrix(1,0,0,1,-944,-8142)"></path><path id="SvgjsPath1042" d="M956 8142.48C949.638 8142.48 944.48 8147.639999999999 944.48 8154C944.48 8160.36 949.638 8165.52 956 8165.52C962.362 8165.52 967.52 8160.360000000001 967.52 8154C967.52 8147.64 962.362 8142.48 956 8142.48ZM946.378 8154C946.378 8153.9 946.3820000000001 8153.79 946.3860000000001 8153.69C946.4030000000001 8153.69 946.421 8153.69 946.4380000000001 8153.69C949.8660000000001 8153.69 953.2710000000001 8153.469999999999 956.3230000000001 8152.57C956.551 8153.03 956.7740000000001 8153.5 956.993 8153.99C952.9770000000001 8155.17 950.474 8157.8099999999995 948.759 8160.33C947.278 8158.63 946.378 8156.42 946.378 8154ZM950.161 8161.64C951.785 8159.1900000000005 954.049 8156.77 957.732 8155.76C958.593 8157.96 959.294 8160.37 959.665 8162.900000000001C958.534 8163.360000000001 957.2969999999999 8163.620000000001 956 8163.620000000001C953.805 8163.620000000001 951.781 8162.880000000001 950.161 8161.640000000001ZM951.863 8145.31C952.844 8146.620000000001 954.147 8148.52 955.423 8150.84C952.72 8151.58 949.697 8151.78 946.6370000000001 8151.79C947.312 8148.93 949.267 8146.56 951.863 8145.31ZM962.234 8146.68C960.878 8148.33 959.1750000000001 8149.46 957.248 8150.2300000000005C956.0150000000001 8147.950000000001 954.7460000000001 8146.040000000001 953.7330000000001 8144.650000000001C954.46 8144.47 955.219 8144.38 956.0000000000001 8144.38C958.3770000000001 8144.38 960.5530000000001 8145.25 962.2340000000002 8146.68ZM963.559 8148.06C964.797 8149.63 965.5559999999999 8151.59 965.616 8153.7300000000005C963.031 8153.280000000001 960.802 8153.26 958.876 8153.570000000001C958.631 8153.01 958.38 8152.47 958.1229999999999 8151.9400000000005C960.188 8151.09 962.04 8149.85 963.559 8148.06ZM961.435 8161.94C961.0419999999999 8159.629999999999 960.396 8157.419999999999 959.6199999999999 8155.379999999999C961.3029999999999 8155.169999999999 963.2389999999999 8155.219999999999 965.4809999999999 8155.629999999999C965.0329999999999 8158.239999999999 963.5339999999999 8160.489999999999 961.4349999999998 8161.94Z " fill="#000000" transform="matrix(1,0,0,1,-944,-8142)"></path><path id="SvgjsPath1043" d="M956 8142.48C949.638 8142.48 944.48 8147.639999999999 944.48 8154C944.48 8160.36 949.638 8165.52 956 8165.52C962.362 8165.52 967.52 8160.360000000001 967.52 8154C967.52 8147.64 962.362 8142.48 956 8142.48ZM946.378 8154C946.378 8153.9 946.3820000000001 8153.79 946.3860000000001 8153.69C946.4030000000001 8153.69 946.421 8153.69 946.4380000000001 8153.69C949.8660000000001 8153.69 953.2710000000001 8153.469999999999 956.3230000000001 8152.57C956.551 8153.03 956.7740000000001 8153.5 956.993 8153.99C952.9770000000001 8155.17 950.474 8157.8099999999995 948.759 8160.33C947.278 8158.63 946.378 8156.42 946.378 8154ZM950.161 8161.64C951.785 8159.1900000000005 954.049 8156.77 957.732 8155.76C958.593 8157.96 959.294 8160.37 959.665 8162.900000000001C958.534 8163.360000000001 957.2969999999999 8163.620000000001 956 8163.620000000001C953.805 8163.620000000001 951.781 8162.880000000001 950.161 8161.640000000001ZM951.863 8145.31C952.844 8146.620000000001 954.147 8148.52 955.423 8150.84C952.72 8151.58 949.697 8151.78 946.6370000000001 8151.79C947.312 8148.93 949.267 8146.56 951.863 8145.31ZM962.234 8146.68C960.878 8148.33 959.1750000000001 8149.46 957.248 8150.2300000000005C956.0150000000001 8147.950000000001 954.7460000000001 8146.040000000001 953.7330000000001 8144.650000000001C954.46 8144.47 955.219 8144.38 956.0000000000001 8144.38C958.3770000000001 8144.38 960.5530000000001 8145.25 962.2340000000002 8146.68ZM963.559 8148.06C964.797 8149.63 965.5559999999999 8151.59 965.616 8153.7300000000005C963.031 8153.280000000001 960.802 8153.26 958.876 8153.570000000001C958.631 8153.01 958.38 8152.47 958.1229999999999 8151.9400000000005C960.188 8151.09 962.04 8149.85 963.559 8148.06ZM961.435 8161.94C961.0419999999999 8159.629999999999 960.396 8157.419999999999 959.6199999999999 8155.379999999999C961.3029999999999 8155.169999999999 963.2389999999999 8155.219999999999 965.4809999999999 8155.629999999999C965.0329999999999 8158.239999999999 963.5339999999999 8160.489999999999 961.4349999999998 8161.94Z " fill="#000000" transform="matrix(1,0,0,1,-944,-8142)"></path><path id="SvgjsPath1044" d="M956 8142.48C949.638 8142.48 944.48 8147.639999999999 944.48 8154C944.48 8160.36 949.638 8165.52 956 8165.52C962.362 8165.52 967.52 8160.360000000001 967.52 8154C967.52 8147.64 962.362 8142.48 956 8142.48ZM946.378 8154C946.378 8153.9 946.3820000000001 8153.79 946.3860000000001 8153.69C946.4030000000001 8153.69 946.421 8153.69 946.4380000000001 8153.69C949.8660000000001 8153.69 953.2710000000001 8153.469999999999 956.3230000000001 8152.57C956.551 8153.03 956.7740000000001 8153.5 956.993 8153.99C952.9770000000001 8155.17 950.474 8157.8099999999995 948.759 8160.33C947.278 8158.63 946.378 8156.42 946.378 8154ZM950.161 8161.64C951.785 8159.1900000000005 954.049 8156.77 957.732 8155.76C958.593 8157.96 959.294 8160.37 959.665 8162.900000000001C958.534 8163.360000000001 957.2969999999999 8163.620000000001 956 8163.620000000001C953.805 8163.620000000001 951.781 8162.880000000001 950.161 8161.640000000001ZM951.863 8145.31C952.844 8146.620000000001 954.147 8148.52 955.423 8150.84C952.72 8151.58 949.697 8151.78 946.6370000000001 8151.79C947.312 8148.93 949.267 8146.56 951.863 8145.31ZM962.234 8146.68C960.878 8148.33 959.1750000000001 8149.46 957.248 8150.2300000000005C956.0150000000001 8147.950000000001 954.7460000000001 8146.040000000001 953.7330000000001 8144.650000000001C954.46 8144.47 955.219 8144.38 956.0000000000001 8144.38C958.3770000000001 8144.38 960.5530000000001 8145.25 962.2340000000002 8146.68ZM963.559 8148.06C964.797 8149.63 965.5559999999999 8151.59 965.616 8153.7300000000005C963.031 8153.280000000001 960.802 8153.26 958.876 8153.570000000001C958.631 8153.01 958.38 8152.47 958.1229999999999 8151.9400000000005C960.188 8151.09 962.04 8149.85 963.559 8148.06ZM961.435 8161.94C961.0419999999999 8159.629999999999 960.396 8157.419999999999 959.6199999999999 8155.379999999999C961.3029999999999 8155.169999999999 963.2389999999999 8155.219999999999 965.4809999999999 8155.629999999999C965.0329999999999 8158.239999999999 963.5339999999999 8160.489999999999 961.4349999999998 8161.94Z " fill="#ffffff" fill-opacity="1" transform="matrix(1,0,0,1,-944,-8142)"></path></svg>