<svg id="SvgjsSvg1013" xmlns="http://www.w3.org/2000/svg" version="1.1" xmlns:xlink="http://www.w3.org/1999/xlink" xmlns:svgjs="http://svgjs.com/svgjs" width="13" height="25.5"><defs id="SvgjsDefs1014"><filter id="SvgjsFilter1016" width="200%" height="200%" x="-50%" y="-50%"><feGaussianBlur id="SvgjsFeGaussianBlur1017" stdDeviation="0 " result="SvgjsFeGaussianBlur1017Out" in="SourceGraphic"></feGaussianBlur></filter></defs><path id="SvgjsPath1015" d="M790.417 8146.96L793.0110000000001 8146.96L793.0110000000001 8142.97L789.6880000000001 8142.97L789.6880000000001 8142.990000000001C785.2830000000001 8143.14 784.0970000000001 8145.620000000001 784.0180000000001 8148.22L784.0100000000001 8148.22L784.0100000000001 8150.97L781.0100000000001 8150.97L781.0100000000001 8154.96L784.0100000000001 8154.96L784.0100000000001 8166.97L789.0000000000001 8166.97L789.0000000000001 8154.96L792.0310000000001 8154.96L792.7610000000001 8150.97L789.0000000000001 8150.97L789.0000000000001 8148.51C789.0000000000001 8147.64 789.5830000000001 8146.96 790.4170000000001 8146.96Z " fill="#000000" fill-opacity="0.1" filter="url(#SvgjsFilter1016)" transform="matrix(1,0,0,1,-781,-8141)"></path><path id="SvgjsPath1018" d="M790.417 8145.96L793.0110000000001 8145.96L793.0110000000001 8141.97L789.6880000000001 8141.97L789.6880000000001 8141.990000000001C785.2830000000001 8142.14 784.0970000000001 8144.620000000001 784.0180000000001 8147.22L784.0100000000001 8147.22L784.0100000000001 8149.97L781.0100000000001 8149.97L781.0100000000001 8153.96L784.0100000000001 8153.96L784.0100000000001 8165.97L789.0000000000001 8165.97L789.0000000000001 8153.96L792.0310000000001 8153.96L792.7610000000001 8149.97L789.0000000000001 8149.97L789.0000000000001 8147.51C789.0000000000001 8146.64 789.5830000000001 8145.96 790.4170000000001 8145.96Z " fill="#000000" transform="matrix(1,0,0,1,-781,-8141)"></path><path id="SvgjsPath1019" d="M790.417 8145.96L793.0110000000001 8145.96L793.0110000000001 8141.97L789.6880000000001 8141.97L789.6880000000001 8141.990000000001C785.2830000000001 8142.14 784.0970000000001 8144.620000000001 784.0180000000001 8147.22L784.0100000000001 8147.22L784.0100000000001 8149.97L781.0100000000001 8149.97L781.0100000000001 8153.96L784.0100000000001 8153.96L784.0100000000001 8165.97L789.0000000000001 8165.97L789.0000000000001 8153.96L792.0310000000001 8153.96L792.7610000000001 8149.97L789.0000000000001 8149.97L789.0000000000001 8147.51C789.0000000000001 8146.64 789.5830000000001 8145.96 790.4170000000001 8145.96Z " fill="#000000" transform="matrix(1,0,0,1,-781,-8141)"></path><path id="SvgjsPath1020" d="M790.417 8145.96L793.0110000000001 8145.96L793.0110000000001 8141.97L789.6880000000001 8141.97L789.6880000000001 8141.990000000001C785.2830000000001 8142.14 784.0970000000001 8144.620000000001 784.0180000000001 8147.22L784.0100000000001 8147.22L784.0100000000001 8149.97L781.0100000000001 8149.97L781.0100000000001 8153.96L784.0100000000001 8153.96L784.0100000000001 8165.97L789.0000000000001 8165.97L789.0000000000001 8153.96L792.0310000000001 8153.96L792.7610000000001 8149.97L789.0000000000001 8149.97L789.0000000000001 8147.51C789.0000000000001 8146.64 789.5830000000001 8145.96 790.4170000000001 8145.96Z " fill="#ffffff" fill-opacity="1" transform="matrix(1,0,0,1,-781,-8141)"></path></svg>