<svg id="SvgjsSvg1029" xmlns="http://www.w3.org/2000/svg" version="1.1" xmlns:xlink="http://www.w3.org/1999/xlink" xmlns:svgjs="http://svgjs.com/svgjs" width="24" height="12.50500000000011"><defs id="SvgjsDefs1030"><filter id="SvgjsFilter1032" width="200%" height="200%" x="-50%" y="-50%"><feGaussianBlur id="SvgjsFeGaussianBlur1033" stdDeviation="0 " result="SvgjsFeGaussianBlur1033Out" in="SourceGraphic"></feGaussianBlur></filter></defs><path id="SvgjsPath1031" d="M899.014 8154.49C899.014 8157.51 896.55 8159.969999999999 893.508 8159.969999999999C890.466 8159.969999999999 888 8157.509999999999 888 8154.49C888 8151.46 890.466 8149 893.508 8149C896.5500000000001 8149 899.014 8151.46 899.014 8154.49ZM912 8154.49C912 8157.53 909.538 8160 906.502 8160C903.4639999999999 8160 901.002 8157.53 901.002 8154.49C901.002 8151.45 903.4639999999999 8148.99 906.502 8148.99C909.5379999999999 8148.99 912 8151.45 912 8154.49Z " fill="#000000" fill-opacity="0.1" filter="url(#SvgjsFilter1032)" transform="matrix(1,0,0,1,-888,-8147)"></path><path id="SvgjsPath1034" d="M899.014 8153.49C899.014 8156.51 896.55 8158.969999999999 893.508 8158.969999999999C890.466 8158.969999999999 888 8156.509999999999 888 8153.49C888 8150.46 890.466 8148 893.508 8148C896.5500000000001 8148 899.014 8150.46 899.014 8153.49ZM912 8153.49C912 8156.53 909.538 8159 906.502 8159C903.4639999999999 8159 901.002 8156.53 901.002 8153.49C901.002 8150.45 903.4639999999999 8147.99 906.502 8147.99C909.5379999999999 8147.99 912 8150.45 912 8153.49Z " fill="#000000" transform="matrix(1,0,0,1,-888,-8147)"></path><path id="SvgjsPath1035" d="M899.014 8153.49C899.014 8156.51 896.55 8158.969999999999 893.508 8158.969999999999C890.466 8158.969999999999 888 8156.509999999999 888 8153.49C888 8150.46 890.466 8148 893.508 8148C896.5500000000001 8148 899.014 8150.46 899.014 8153.49ZM912 8153.49C912 8156.53 909.538 8159 906.502 8159C903.4639999999999 8159 901.002 8156.53 901.002 8153.49C901.002 8150.45 903.4639999999999 8147.99 906.502 8147.99C909.5379999999999 8147.99 912 8150.45 912 8153.49Z " fill="#000000" transform="matrix(1,0,0,1,-888,-8147)"></path><path id="SvgjsPath1036" d="M899.014 8153.49C899.014 8156.51 896.55 8158.969999999999 893.508 8158.969999999999C890.466 8158.969999999999 888 8156.509999999999 888 8153.49C888 8150.46 890.466 8148 893.508 8148C896.5500000000001 8148 899.014 8150.46 899.014 8153.49ZM912 8153.49C912 8156.53 909.538 8159 906.502 8159C903.4639999999999 8159 901.002 8156.53 901.002 8153.49C901.002 8150.45 903.4639999999999 8147.99 906.502 8147.99C909.5379999999999 8147.99 912 8150.45 912 8153.49Z " fill="#ffffff" fill-opacity="1" transform="matrix(1,0,0,1,-888,-8147)"></path></svg>