<svg id="SvgjsSvg1109" xmlns="http://www.w3.org/2000/svg" version="1.1" xmlns:xlink="http://www.w3.org/1999/xlink" xmlns:svgjs="http://svgjs.com/svgjs" width="25" height="27.48146620494299"><defs id="SvgjsDefs1110"><filter id="SvgjsFilter1112" width="200%" height="200%" x="-50%" y="-50%"><feGaussianBlur id="SvgjsFeGaussianBlur1113" stdDeviation="0 " result="SvgjsFeGaussianBlur1113Out" in="SourceGraphic"></feGaussianBlur></filter></defs><path id="SvgjsPath1111" d="M1067.92 8220.63C1067.6100000000001 8220.589999999998 1063.5600000000002 8220.39 1063.3700000000001 8220.269999999999C1063.44 8220.429999999998 1063.3700000000001 8217.749999999998 1063.3600000000001 8217.369999999999C1063.3300000000002 8217.349999999999 1059.7 8218.439999999999 1058.14 8215.82C1057.89 8215.4 1057.49 8213.9 1056.4 8213.07C1056.3600000000001 8213.039999999999 1055.5600000000002 8212.63 1055.49 8212.23C1055.48 8212.18 1055.54 8212.06 1055.6200000000001 8212.029999999999C1055.7 8211.999999999998 1057.0200000000002 8211.46 1058.5000000000002 8213.32C1058.9400000000003 8213.94 1059.9400000000003 8216.33 1063.4600000000003 8214.86C1063.5500000000002 8214.49 1063.7400000000002 8213.640000000001 1064.8600000000004 8213.41C1059.6200000000003 8212.789999999999 1057.2400000000005 8210.8 1056.4900000000005 8206.35C1056.0300000000004 8203.32 1056.9200000000005 8200.79 1058.2600000000004 8199.550000000001C1058.0600000000004 8199.28 1057.3900000000006 8197.070000000002 1058.4300000000005 8194.720000000001C1059.5500000000004 8194.500000000002 1061.6100000000006 8195.300000000001 1063.4200000000005 8196.6C1065.9800000000005 8195.68 1070.7800000000004 8195.92 1072.4900000000005 8196.6C1073.3100000000004 8195.93 1076.2200000000005 8194.36 1077.4800000000005 8194.720000000001C1077.8400000000004 8195.660000000002 1078.3700000000006 8197.910000000002 1077.6400000000006 8199.560000000001C1079.2700000000007 8201.220000000001 1079.7300000000005 8203.380000000001 1079.4300000000005 8206.02C1079.0700000000006 8210.03 1076.6100000000006 8212.9 1071.0600000000006 8213.37C1072.4600000000007 8214.33 1072.5200000000007 8215.83 1072.5700000000006 8216.42C1072.5800000000006 8217.8 1072.5500000000006 8219.67 1072.5700000000006 8220.27 " fill="#000000" fill-opacity="0.1" filter="url(#SvgjsFilter1112)" transform="matrix(1,0,0,1,-1055,-8193)"></path><path id="SvgjsPath1114" d="M1067.92 8219.63C1067.6100000000001 8219.589999999998 1063.5600000000002 8219.39 1063.3700000000001 8219.269999999999C1063.44 8219.429999999998 1063.3700000000001 8216.749999999998 1063.3600000000001 8216.369999999999C1063.3300000000002 8216.349999999999 1059.7 8217.439999999999 1058.14 8214.82C1057.89 8214.4 1057.49 8212.9 1056.4 8212.07C1056.3600000000001 8212.039999999999 1055.5600000000002 8211.63 1055.49 8211.23C1055.48 8211.18 1055.54 8211.06 1055.6200000000001 8211.029999999999C1055.7 8210.999999999998 1057.0200000000002 8210.46 1058.5000000000002 8212.32C1058.9400000000003 8212.94 1059.9400000000003 8215.33 1063.4600000000003 8213.86C1063.5500000000002 8213.49 1063.7400000000002 8212.640000000001 1064.8600000000004 8212.41C1059.6200000000003 8211.789999999999 1057.2400000000005 8209.8 1056.4900000000005 8205.35C1056.0300000000004 8202.32 1056.9200000000005 8199.79 1058.2600000000004 8198.550000000001C1058.0600000000004 8198.28 1057.3900000000006 8196.070000000002 1058.4300000000005 8193.720000000001C1059.5500000000004 8193.500000000002 1061.6100000000006 8194.300000000001 1063.4200000000005 8195.6C1065.9800000000005 8194.68 1070.7800000000004 8194.92 1072.4900000000005 8195.6C1073.3100000000004 8194.93 1076.2200000000005 8193.36 1077.4800000000005 8193.720000000001C1077.8400000000004 8194.660000000002 1078.3700000000006 8196.910000000002 1077.6400000000006 8198.560000000001C1079.2700000000007 8200.220000000001 1079.7300000000005 8202.380000000001 1079.4300000000005 8205.02C1079.0700000000006 8209.03 1076.6100000000006 8211.9 1071.0600000000006 8212.37C1072.4600000000007 8213.33 1072.5200000000007 8214.83 1072.5700000000006 8215.42C1072.5800000000006 8216.8 1072.5500000000006 8218.67 1072.5700000000006 8219.27 " fill="#000000" transform="matrix(1,0,0,1,-1055,-8193)"></path><path id="SvgjsPath1115" d="M1067.92 8219.63C1067.6100000000001 8219.589999999998 1063.5600000000002 8219.39 1063.3700000000001 8219.269999999999C1063.44 8219.429999999998 1063.3700000000001 8216.749999999998 1063.3600000000001 8216.369999999999C1063.3300000000002 8216.349999999999 1059.7 8217.439999999999 1058.14 8214.82C1057.89 8214.4 1057.49 8212.9 1056.4 8212.07C1056.3600000000001 8212.039999999999 1055.5600000000002 8211.63 1055.49 8211.23C1055.48 8211.18 1055.54 8211.06 1055.6200000000001 8211.029999999999C1055.7 8210.999999999998 1057.0200000000002 8210.46 1058.5000000000002 8212.32C1058.9400000000003 8212.94 1059.9400000000003 8215.33 1063.4600000000003 8213.86C1063.5500000000002 8213.49 1063.7400000000002 8212.640000000001 1064.8600000000004 8212.41C1059.6200000000003 8211.789999999999 1057.2400000000005 8209.8 1056.4900000000005 8205.35C1056.0300000000004 8202.32 1056.9200000000005 8199.79 1058.2600000000004 8198.550000000001C1058.0600000000004 8198.28 1057.3900000000006 8196.070000000002 1058.4300000000005 8193.720000000001C1059.5500000000004 8193.500000000002 1061.6100000000006 8194.300000000001 1063.4200000000005 8195.6C1065.9800000000005 8194.68 1070.7800000000004 8194.92 1072.4900000000005 8195.6C1073.3100000000004 8194.93 1076.2200000000005 8193.36 1077.4800000000005 8193.720000000001C1077.8400000000004 8194.660000000002 1078.3700000000006 8196.910000000002 1077.6400000000006 8198.560000000001C1079.2700000000007 8200.220000000001 1079.7300000000005 8202.380000000001 1079.4300000000005 8205.02C1079.0700000000006 8209.03 1076.6100000000006 8211.9 1071.0600000000006 8212.37C1072.4600000000007 8213.33 1072.5200000000007 8214.83 1072.5700000000006 8215.42C1072.5800000000006 8216.8 1072.5500000000006 8218.67 1072.5700000000006 8219.27 " fill="#000000" transform="matrix(1,0,0,1,-1055,-8193)"></path><path id="SvgjsPath1116" d="M1067.92 8219.63C1067.6100000000001 8219.589999999998 1063.5600000000002 8219.39 1063.3700000000001 8219.269999999999C1063.44 8219.429999999998 1063.3700000000001 8216.749999999998 1063.3600000000001 8216.369999999999C1063.3300000000002 8216.349999999999 1059.7 8217.439999999999 1058.14 8214.82C1057.89 8214.4 1057.49 8212.9 1056.4 8212.07C1056.3600000000001 8212.039999999999 1055.5600000000002 8211.63 1055.49 8211.23C1055.48 8211.18 1055.54 8211.06 1055.6200000000001 8211.029999999999C1055.7 8210.999999999998 1057.0200000000002 8210.46 1058.5000000000002 8212.32C1058.9400000000003 8212.94 1059.9400000000003 8215.33 1063.4600000000003 8213.86C1063.5500000000002 8213.49 1063.7400000000002 8212.640000000001 1064.8600000000004 8212.41C1059.6200000000003 8211.789999999999 1057.2400000000005 8209.8 1056.4900000000005 8205.35C1056.0300000000004 8202.32 1056.9200000000005 8199.79 1058.2600000000004 8198.550000000001C1058.0600000000004 8198.28 1057.3900000000006 8196.070000000002 1058.4300000000005 8193.720000000001C1059.5500000000004 8193.500000000002 1061.6100000000006 8194.300000000001 1063.4200000000005 8195.6C1065.9800000000005 8194.68 1070.7800000000004 8194.92 1072.4900000000005 8195.6C1073.3100000000004 8194.93 1076.2200000000005 8193.36 1077.4800000000005 8193.720000000001C1077.8400000000004 8194.660000000002 1078.3700000000006 8196.910000000002 1077.6400000000006 8198.560000000001C1079.2700000000007 8200.220000000001 1079.7300000000005 8202.380000000001 1079.4300000000005 8205.02C1079.0700000000006 8209.03 1076.6100000000006 8211.9 1071.0600000000006 8212.37C1072.4600000000007 8213.33 1072.5200000000007 8214.83 1072.5700000000006 8215.42C1072.5800000000006 8216.8 1072.5500000000006 8218.67 1072.5700000000006 8219.27 " fill="#ffffff" fill-opacity="1" transform="matrix(1,0,0,1,-1055,-8193)"></path></svg>