<svg id="SvgjsSvg1021" xmlns="http://www.w3.org/2000/svg" version="1.1" xmlns:xlink="http://www.w3.org/1999/xlink" xmlns:svgjs="http://svgjs.com/svgjs" width="25" height="22.50500000000011"><defs id="SvgjsDefs1022"><filter id="SvgjsFilter1024" width="200%" height="200%" x="-50%" y="-50%"><feGaussianBlur id="SvgjsFeGaussianBlur1025" stdDeviation="0 " result="SvgjsFeGaussianBlur1025Out" in="SourceGraphic"></feGaussianBlur></filter></defs><path id="SvgjsPath1023" d="M844.758 8158.21C844.144 8157.77 842.97 8156.71 842.97 8156.09C842.97 8155.37 843.178 8155.01 844.274 8154.150000000001C845.398 8153.27 846.068 8152.1900000000005 846.068 8150.750000000001C846.068 8149.050000000001 845.432 8146.9800000000005 844.0029999999999 8146.9800000000005L846.1569999999999 8146.9800000000005L847.679 8145.9800000000005C847.679 8145.9800000000005 842.582 8145.9800000000005 840.8829999999999 8145.9800000000005C837.8359999999999 8145.9800000000005 834.9699999999999 8148.09 834.9699999999999 8150.76C834.9699999999999 8153.49 837.045 8155.6 840.1449999999999 8155.6C840.3599999999999 8155.6 840.5689999999998 8155.54 840.7749999999999 8155.530000000001C840.5729999999999 8155.910000000001 840.4299999999998 8156.320000000001 840.4299999999998 8156.77C840.4299999999998 8157.530000000001 840.8399999999998 8158.13 841.3559999999999 8158.64C840.9659999999999 8158.64 840.5879999999999 8158.64 840.1769999999999 8158.64C836.4039999999999 8158.64 832.9689999999999 8160.67 832.9689999999999 8163.160000000001C832.9689999999999 8165.610000000001 836.684 8166.990000000001 840.457 8166.990000000001C844.758 8166.990000000001 846.979 8165.080000000001 846.979 8162.630000000001C846.979 8160.660000000001 846.5540000000001 8159.480000000001 844.758 8158.210000000001ZM840.443 8165.9C837.836 8165.9 835.952 8164.78 835.952 8162.799999999999C835.952 8160.86 838.287 8159.239999999999 840.895 8159.2699999999995C841.505 8159.2699999999995 842.0699999999999 8159.37 842.587 8159.54C844.003 8160.5199999999995 844.768 8161.08 845.055 8162.2C845.107 8162.429999999999 845.1379999999999 8162.66 845.1379999999999 8162.9C845.1379999999999 8164.879999999999 844.1099999999999 8165.9 840.4429999999999 8165.9ZM841.129 8154.8C839.3770000000001 8154.75 837.714 8152.84 837.413 8150.55C837.109 8148.25 838.283 8146.49 840.033 8146.54C841.783 8146.59 843.447 8148.44 843.75 8150.73C844.052 8153.03 842.879 8154.849999999999 841.129 8154.799999999999ZM852.006 8146.93L852.006 8149.9800000000005L849.011 8149.9800000000005L849.011 8152.000000000001L852.006 8152.000000000001L852.006 8155.000000000001L854.007 8155.000000000001L854.007 8152.000000000001L857 8152.000000000001L857 8149.9800000000005L854.007 8149.9800000000005L854.007 8146.93Z " fill="#000000" fill-opacity="0.1" filter="url(#SvgjsFilter1024)" transform="matrix(1,0,0,1,-832,-8144)"></path><path id="SvgjsPath1026" d="M844.758 8157.21C844.144 8156.77 842.97 8155.71 842.97 8155.09C842.97 8154.37 843.178 8154.01 844.274 8153.150000000001C845.398 8152.27 846.068 8151.1900000000005 846.068 8149.750000000001C846.068 8148.050000000001 845.432 8145.9800000000005 844.0029999999999 8145.9800000000005L846.1569999999999 8145.9800000000005L847.679 8144.9800000000005C847.679 8144.9800000000005 842.582 8144.9800000000005 840.8829999999999 8144.9800000000005C837.8359999999999 8144.9800000000005 834.9699999999999 8147.09 834.9699999999999 8149.76C834.9699999999999 8152.49 837.045 8154.6 840.1449999999999 8154.6C840.3599999999999 8154.6 840.5689999999998 8154.54 840.7749999999999 8154.530000000001C840.5729999999999 8154.910000000001 840.4299999999998 8155.320000000001 840.4299999999998 8155.77C840.4299999999998 8156.530000000001 840.8399999999998 8157.13 841.3559999999999 8157.64C840.9659999999999 8157.64 840.5879999999999 8157.64 840.1769999999999 8157.64C836.4039999999999 8157.64 832.9689999999999 8159.67 832.9689999999999 8162.160000000001C832.9689999999999 8164.610000000001 836.684 8165.990000000001 840.457 8165.990000000001C844.758 8165.990000000001 846.979 8164.080000000001 846.979 8161.630000000001C846.979 8159.660000000001 846.5540000000001 8158.480000000001 844.758 8157.210000000001ZM840.443 8164.9C837.836 8164.9 835.952 8163.78 835.952 8161.799999999999C835.952 8159.86 838.287 8158.239999999999 840.895 8158.2699999999995C841.505 8158.2699999999995 842.0699999999999 8158.37 842.587 8158.54C844.003 8159.5199999999995 844.768 8160.08 845.055 8161.2C845.107 8161.429999999999 845.1379999999999 8161.66 845.1379999999999 8161.9C845.1379999999999 8163.879999999999 844.1099999999999 8164.9 840.4429999999999 8164.9ZM841.129 8153.8C839.3770000000001 8153.75 837.714 8151.84 837.413 8149.55C837.109 8147.25 838.283 8145.49 840.033 8145.54C841.783 8145.59 843.447 8147.44 843.75 8149.73C844.052 8152.03 842.879 8153.849999999999 841.129 8153.799999999999ZM852.006 8145.93L852.006 8148.9800000000005L849.011 8148.9800000000005L849.011 8151.000000000001L852.006 8151.000000000001L852.006 8154.000000000001L854.007 8154.000000000001L854.007 8151.000000000001L857 8151.000000000001L857 8148.9800000000005L854.007 8148.9800000000005L854.007 8145.93Z " fill="#000000" transform="matrix(1,0,0,1,-832,-8144)"></path><path id="SvgjsPath1027" d="M844.758 8157.21C844.144 8156.77 842.97 8155.71 842.97 8155.09C842.97 8154.37 843.178 8154.01 844.274 8153.150000000001C845.398 8152.27 846.068 8151.1900000000005 846.068 8149.750000000001C846.068 8148.050000000001 845.432 8145.9800000000005 844.0029999999999 8145.9800000000005L846.1569999999999 8145.9800000000005L847.679 8144.9800000000005C847.679 8144.9800000000005 842.582 8144.9800000000005 840.8829999999999 8144.9800000000005C837.8359999999999 8144.9800000000005 834.9699999999999 8147.09 834.9699999999999 8149.76C834.9699999999999 8152.49 837.045 8154.6 840.1449999999999 8154.6C840.3599999999999 8154.6 840.5689999999998 8154.54 840.7749999999999 8154.530000000001C840.5729999999999 8154.910000000001 840.4299999999998 8155.320000000001 840.4299999999998 8155.77C840.4299999999998 8156.530000000001 840.8399999999998 8157.13 841.3559999999999 8157.64C840.9659999999999 8157.64 840.5879999999999 8157.64 840.1769999999999 8157.64C836.4039999999999 8157.64 832.9689999999999 8159.67 832.9689999999999 8162.160000000001C832.9689999999999 8164.610000000001 836.684 8165.990000000001 840.457 8165.990000000001C844.758 8165.990000000001 846.979 8164.080000000001 846.979 8161.630000000001C846.979 8159.660000000001 846.5540000000001 8158.480000000001 844.758 8157.210000000001ZM840.443 8164.9C837.836 8164.9 835.952 8163.78 835.952 8161.799999999999C835.952 8159.86 838.287 8158.239999999999 840.895 8158.2699999999995C841.505 8158.2699999999995 842.0699999999999 8158.37 842.587 8158.54C844.003 8159.5199999999995 844.768 8160.08 845.055 8161.2C845.107 8161.429999999999 845.1379999999999 8161.66 845.1379999999999 8161.9C845.1379999999999 8163.879999999999 844.1099999999999 8164.9 840.4429999999999 8164.9ZM841.129 8153.8C839.3770000000001 8153.75 837.714 8151.84 837.413 8149.55C837.109 8147.25 838.283 8145.49 840.033 8145.54C841.783 8145.59 843.447 8147.44 843.75 8149.73C844.052 8152.03 842.879 8153.849999999999 841.129 8153.799999999999ZM852.006 8145.93L852.006 8148.9800000000005L849.011 8148.9800000000005L849.011 8151.000000000001L852.006 8151.000000000001L852.006 8154.000000000001L854.007 8154.000000000001L854.007 8151.000000000001L857 8151.000000000001L857 8148.9800000000005L854.007 8148.9800000000005L854.007 8145.93Z " fill="#000000" transform="matrix(1,0,0,1,-832,-8144)"></path><path id="SvgjsPath1028" d="M844.758 8157.21C844.144 8156.77 842.97 8155.71 842.97 8155.09C842.97 8154.37 843.178 8154.01 844.274 8153.150000000001C845.398 8152.27 846.068 8151.1900000000005 846.068 8149.750000000001C846.068 8148.050000000001 845.432 8145.9800000000005 844.0029999999999 8145.9800000000005L846.1569999999999 8145.9800000000005L847.679 8144.9800000000005C847.679 8144.9800000000005 842.582 8144.9800000000005 840.8829999999999 8144.9800000000005C837.8359999999999 8144.9800000000005 834.9699999999999 8147.09 834.9699999999999 8149.76C834.9699999999999 8152.49 837.045 8154.6 840.1449999999999 8154.6C840.3599999999999 8154.6 840.5689999999998 8154.54 840.7749999999999 8154.530000000001C840.5729999999999 8154.910000000001 840.4299999999998 8155.320000000001 840.4299999999998 8155.77C840.4299999999998 8156.530000000001 840.8399999999998 8157.13 841.3559999999999 8157.64C840.9659999999999 8157.64 840.5879999999999 8157.64 840.1769999999999 8157.64C836.4039999999999 8157.64 832.9689999999999 8159.67 832.9689999999999 8162.160000000001C832.9689999999999 8164.610000000001 836.684 8165.990000000001 840.457 8165.990000000001C844.758 8165.990000000001 846.979 8164.080000000001 846.979 8161.630000000001C846.979 8159.660000000001 846.5540000000001 8158.480000000001 844.758 8157.210000000001ZM840.443 8164.9C837.836 8164.9 835.952 8163.78 835.952 8161.799999999999C835.952 8159.86 838.287 8158.239999999999 840.895 8158.2699999999995C841.505 8158.2699999999995 842.0699999999999 8158.37 842.587 8158.54C844.003 8159.5199999999995 844.768 8160.08 845.055 8161.2C845.107 8161.429999999999 845.1379999999999 8161.66 845.1379999999999 8161.9C845.1379999999999 8163.879999999999 844.1099999999999 8164.9 840.4429999999999 8164.9ZM841.129 8153.8C839.3770000000001 8153.75 837.714 8151.84 837.413 8149.55C837.109 8147.25 838.283 8145.49 840.033 8145.54C841.783 8145.59 843.447 8147.44 843.75 8149.73C844.052 8152.03 842.879 8153.849999999999 841.129 8153.799999999999ZM852.006 8145.93L852.006 8148.9800000000005L849.011 8148.9800000000005L849.011 8151.000000000001L852.006 8151.000000000001L852.006 8154.000000000001L854.007 8154.000000000001L854.007 8151.000000000001L857 8151.000000000001L857 8148.9800000000005L854.007 8148.9800000000005L854.007 8145.93Z " fill="#ffffff" fill-opacity="1" transform="matrix(1,0,0,1,-832,-8144)"></path></svg>