<svg id="SvgjsSvg1045" xmlns="http://www.w3.org/2000/svg" version="1.1" xmlns:xlink="http://www.w3.org/1999/xlink" xmlns:svgjs="http://svgjs.com/svgjs" width="25" height="23.659999999999854"><defs id="SvgjsDefs1046"><filter id="SvgjsFilter1048" width="200%" height="200%" x="-50%" y="-50%"><feGaussianBlur id="SvgjsFeGaussianBlur1049" stdDeviation="0 " result="SvgjsFeGaussianBlur1049Out" in="SourceGraphic"></feGaussianBlur></filter></defs><path id="SvgjsPath1047" d="M1024 8156.47L1024 8164.9800000000005L1019 8164.9800000000005L1019 8156.81C1019 8155.13 1017.8 8153.46 1015.83 8153.46C1013.86 8153.46 1012.99 8155.13 1012.99 8156.85L1012.99 8164.9800000000005L1007.99 8164.9800000000005L1007.99 8149.9800000000005L1012.96 8149.9800000000005L1012.96 8152.030000000001C1014.34 8150.27 1015.62 8149.4800000000005 1017.8000000000001 8149.4800000000005C1019.98 8149.4800000000005 1024 8150.570000000001 1024 8156.47ZM1000 8165L1000 8150L1005 8150L1005 8165ZM1005.47 8145.32C1005.47 8146.78 1004.15 8147.96 1002.53 8147.96C1000.91 8147.96 999.5939999999999 8146.78 999.5939999999999 8145.32C999.5939999999999 8143.86 1000.91 8142.679999999999 1002.53 8142.679999999999C1004.15 8142.679999999999 1005.47 8143.86 1005.47 8145.32Z " fill="#000000" fill-opacity="0.1" filter="url(#SvgjsFilter1048)" transform="matrix(1,0,0,1,-999,-8141)"></path><path id="SvgjsPath1050" d="M1024 8155.47L1024 8163.9800000000005L1019 8163.9800000000005L1019 8155.81C1019 8154.13 1017.8 8152.46 1015.83 8152.46C1013.86 8152.46 1012.99 8154.13 1012.99 8155.85L1012.99 8163.9800000000005L1007.99 8163.9800000000005L1007.99 8148.9800000000005L1012.96 8148.9800000000005L1012.96 8151.030000000001C1014.34 8149.27 1015.62 8148.4800000000005 1017.8000000000001 8148.4800000000005C1019.98 8148.4800000000005 1024 8149.570000000001 1024 8155.47ZM1000 8164L1000 8149L1005 8149L1005 8164ZM1005.47 8144.32C1005.47 8145.78 1004.15 8146.96 1002.53 8146.96C1000.91 8146.96 999.5939999999999 8145.78 999.5939999999999 8144.32C999.5939999999999 8142.86 1000.91 8141.679999999999 1002.53 8141.679999999999C1004.15 8141.679999999999 1005.47 8142.86 1005.47 8144.32Z " fill="#000000" transform="matrix(1,0,0,1,-999,-8141)"></path><path id="SvgjsPath1051" d="M1024 8155.47L1024 8163.9800000000005L1019 8163.9800000000005L1019 8155.81C1019 8154.13 1017.8 8152.46 1015.83 8152.46C1013.86 8152.46 1012.99 8154.13 1012.99 8155.85L1012.99 8163.9800000000005L1007.99 8163.9800000000005L1007.99 8148.9800000000005L1012.96 8148.9800000000005L1012.96 8151.030000000001C1014.34 8149.27 1015.62 8148.4800000000005 1017.8000000000001 8148.4800000000005C1019.98 8148.4800000000005 1024 8149.570000000001 1024 8155.47ZM1000 8164L1000 8149L1005 8149L1005 8164ZM1005.47 8144.32C1005.47 8145.78 1004.15 8146.96 1002.53 8146.96C1000.91 8146.96 999.5939999999999 8145.78 999.5939999999999 8144.32C999.5939999999999 8142.86 1000.91 8141.679999999999 1002.53 8141.679999999999C1004.15 8141.679999999999 1005.47 8142.86 1005.47 8144.32Z " fill="#000000" transform="matrix(1,0,0,1,-999,-8141)"></path><path id="SvgjsPath1052" d="M1024 8155.47L1024 8163.9800000000005L1019 8163.9800000000005L1019 8155.81C1019 8154.13 1017.8 8152.46 1015.83 8152.46C1013.86 8152.46 1012.99 8154.13 1012.99 8155.85L1012.99 8163.9800000000005L1007.99 8163.9800000000005L1007.99 8148.9800000000005L1012.96 8148.9800000000005L1012.96 8151.030000000001C1014.34 8149.27 1015.62 8148.4800000000005 1017.8000000000001 8148.4800000000005C1019.98 8148.4800000000005 1024 8149.570000000001 1024 8155.47ZM1000 8164L1000 8149L1005 8149L1005 8164ZM1005.47 8144.32C1005.47 8145.78 1004.15 8146.96 1002.53 8146.96C1000.91 8146.96 999.5939999999999 8145.78 999.5939999999999 8144.32C999.5939999999999 8142.86 1000.91 8141.679999999999 1002.53 8141.679999999999C1004.15 8141.679999999999 1005.47 8142.86 1005.47 8144.32Z " fill="#ffffff" fill-opacity="1" transform="matrix(1,0,0,1,-999,-8141)"></path></svg>