<svg id="SvgjsSvg1053" xmlns="http://www.w3.org/2000/svg" version="1.1" xmlns:xlink="http://www.w3.org/1999/xlink" xmlns:svgjs="http://svgjs.com/svgjs" width="24" height="25.50000000000182"><defs id="SvgjsDefs1054"><filter id="SvgjsFilter1056" width="200%" height="200%" x="-50%" y="-50%"><feGaussianBlur id="SvgjsFeGaussianBlur1057" stdDeviation="0 " result="SvgjsFeGaussianBlur1057Out" in="SourceGraphic"></feGaussianBlur></filter></defs><path id="SvgjsPath1055" d="M1068 8142.97C1061.37 8142.97 1056 8148.34 1056 8154.97C1056 8159.91 1058.99 8164.150000000001 1063.25 8165.990000000001C1063.22 8165.160000000001 1063.25 8164.160000000001 1063.46 8163.250000000001C1063.69 8162.280000000001 1065.01 8156.6900000000005 1065.01 8156.6900000000005C1065.01 8156.6900000000005 1064.6299999999999 8155.92 1064.6299999999999 8154.790000000001C1064.6299999999999 8153.000000000001 1065.6599999999999 8151.670000000001 1066.9499999999998 8151.670000000001C1068.0399999999997 8151.670000000001 1068.5699999999997 8152.490000000001 1068.5699999999997 8153.480000000001C1068.5699999999997 8154.580000000002 1067.8699999999997 8156.230000000001 1067.5099999999998 8157.750000000002C1067.2099999999998 8159.030000000002 1068.1499999999999 8160.0700000000015 1069.4099999999999 8160.0700000000015C1071.6899999999998 8160.0700000000015 1073.2299999999998 8157.140000000001 1073.2299999999998 8153.670000000002C1073.2299999999998 8151.030000000002 1071.4499999999998 8149.050000000002 1068.2199999999998 8149.050000000002C1064.5699999999997 8149.050000000002 1062.2899999999997 8151.780000000002 1062.2899999999997 8154.820000000002C1062.2899999999997 8155.870000000003 1062.5999999999997 8156.610000000002 1063.0799999999997 8157.180000000002C1063.3099999999997 8157.440000000002 1063.3399999999997 8157.550000000002 1063.2499999999998 8157.850000000002C1063.1999999999998 8158.070000000002 1063.0699999999997 8158.610000000002 1063.0099999999998 8158.820000000002C1062.9299999999998 8159.130000000003 1062.6799999999998 8159.230000000002 1062.4099999999999 8159.120000000003C1060.7299999999998 8158.440000000002 1059.9399999999998 8156.590000000003 1059.9399999999998 8154.520000000002C1059.9399999999998 8151.100000000002 1062.83 8147.000000000002 1068.5499999999997 8147.000000000002C1073.1499999999996 8147.000000000002 1076.1699999999996 8150.3200000000015 1076.1699999999996 8153.890000000002C1076.1699999999996 8158.620000000002 1073.5499999999997 8162.150000000002 1069.6699999999996 8162.150000000002C1068.3699999999997 8162.150000000002 1067.1499999999996 8161.450000000003 1066.7299999999996 8160.650000000002C1066.7299999999996 8160.650000000002 1066.0299999999995 8163.420000000003 1065.8899999999996 8163.960000000003C1065.6299999999997 8164.870000000003 1065.1499999999996 8165.790000000003 1064.6899999999996 8166.510000000003C1065.7399999999996 8166.810000000003 1066.8499999999997 8166.970000000003 1067.9999999999995 8166.970000000003C1074.6299999999997 8166.970000000003 1079.9999999999995 8161.600000000003 1079.9999999999995 8154.970000000003C1079.9999999999995 8148.340000000003 1074.6299999999997 8142.970000000003 1067.9999999999995 8142.970000000003Z " fill="#000000" fill-opacity="0.1" filter="url(#SvgjsFilter1056)" transform="matrix(1,0,0,1,-1056,-8141)"></path><path id="SvgjsPath1058" d="M1068 8141.97C1061.37 8141.97 1056 8147.34 1056 8153.97C1056 8158.91 1058.99 8163.150000000001 1063.25 8164.990000000001C1063.22 8164.160000000001 1063.25 8163.160000000001 1063.46 8162.250000000001C1063.69 8161.280000000001 1065.01 8155.6900000000005 1065.01 8155.6900000000005C1065.01 8155.6900000000005 1064.6299999999999 8154.92 1064.6299999999999 8153.790000000001C1064.6299999999999 8152.000000000001 1065.6599999999999 8150.670000000001 1066.9499999999998 8150.670000000001C1068.0399999999997 8150.670000000001 1068.5699999999997 8151.490000000001 1068.5699999999997 8152.480000000001C1068.5699999999997 8153.580000000002 1067.8699999999997 8155.230000000001 1067.5099999999998 8156.750000000002C1067.2099999999998 8158.030000000002 1068.1499999999999 8159.0700000000015 1069.4099999999999 8159.0700000000015C1071.6899999999998 8159.0700000000015 1073.2299999999998 8156.140000000001 1073.2299999999998 8152.670000000002C1073.2299999999998 8150.030000000002 1071.4499999999998 8148.050000000002 1068.2199999999998 8148.050000000002C1064.5699999999997 8148.050000000002 1062.2899999999997 8150.780000000002 1062.2899999999997 8153.820000000002C1062.2899999999997 8154.870000000003 1062.5999999999997 8155.610000000002 1063.0799999999997 8156.180000000002C1063.3099999999997 8156.440000000002 1063.3399999999997 8156.550000000002 1063.2499999999998 8156.850000000002C1063.1999999999998 8157.070000000002 1063.0699999999997 8157.610000000002 1063.0099999999998 8157.820000000002C1062.9299999999998 8158.130000000003 1062.6799999999998 8158.230000000002 1062.4099999999999 8158.120000000003C1060.7299999999998 8157.440000000002 1059.9399999999998 8155.590000000003 1059.9399999999998 8153.520000000002C1059.9399999999998 8150.100000000002 1062.83 8146.000000000002 1068.5499999999997 8146.000000000002C1073.1499999999996 8146.000000000002 1076.1699999999996 8149.3200000000015 1076.1699999999996 8152.890000000002C1076.1699999999996 8157.620000000002 1073.5499999999997 8161.150000000002 1069.6699999999996 8161.150000000002C1068.3699999999997 8161.150000000002 1067.1499999999996 8160.450000000003 1066.7299999999996 8159.650000000002C1066.7299999999996 8159.650000000002 1066.0299999999995 8162.420000000003 1065.8899999999996 8162.960000000003C1065.6299999999997 8163.870000000003 1065.1499999999996 8164.790000000003 1064.6899999999996 8165.510000000003C1065.7399999999996 8165.810000000003 1066.8499999999997 8165.970000000003 1067.9999999999995 8165.970000000003C1074.6299999999997 8165.970000000003 1079.9999999999995 8160.600000000003 1079.9999999999995 8153.970000000003C1079.9999999999995 8147.340000000003 1074.6299999999997 8141.970000000003 1067.9999999999995 8141.970000000003Z " fill="#000000" transform="matrix(1,0,0,1,-1056,-8141)"></path><path id="SvgjsPath1059" d="M1068 8141.97C1061.37 8141.97 1056 8147.34 1056 8153.97C1056 8158.91 1058.99 8163.150000000001 1063.25 8164.990000000001C1063.22 8164.160000000001 1063.25 8163.160000000001 1063.46 8162.250000000001C1063.69 8161.280000000001 1065.01 8155.6900000000005 1065.01 8155.6900000000005C1065.01 8155.6900000000005 1064.6299999999999 8154.92 1064.6299999999999 8153.790000000001C1064.6299999999999 8152.000000000001 1065.6599999999999 8150.670000000001 1066.9499999999998 8150.670000000001C1068.0399999999997 8150.670000000001 1068.5699999999997 8151.490000000001 1068.5699999999997 8152.480000000001C1068.5699999999997 8153.580000000002 1067.8699999999997 8155.230000000001 1067.5099999999998 8156.750000000002C1067.2099999999998 8158.030000000002 1068.1499999999999 8159.0700000000015 1069.4099999999999 8159.0700000000015C1071.6899999999998 8159.0700000000015 1073.2299999999998 8156.140000000001 1073.2299999999998 8152.670000000002C1073.2299999999998 8150.030000000002 1071.4499999999998 8148.050000000002 1068.2199999999998 8148.050000000002C1064.5699999999997 8148.050000000002 1062.2899999999997 8150.780000000002 1062.2899999999997 8153.820000000002C1062.2899999999997 8154.870000000003 1062.5999999999997 8155.610000000002 1063.0799999999997 8156.180000000002C1063.3099999999997 8156.440000000002 1063.3399999999997 8156.550000000002 1063.2499999999998 8156.850000000002C1063.1999999999998 8157.070000000002 1063.0699999999997 8157.610000000002 1063.0099999999998 8157.820000000002C1062.9299999999998 8158.130000000003 1062.6799999999998 8158.230000000002 1062.4099999999999 8158.120000000003C1060.7299999999998 8157.440000000002 1059.9399999999998 8155.590000000003 1059.9399999999998 8153.520000000002C1059.9399999999998 8150.100000000002 1062.83 8146.000000000002 1068.5499999999997 8146.000000000002C1073.1499999999996 8146.000000000002 1076.1699999999996 8149.3200000000015 1076.1699999999996 8152.890000000002C1076.1699999999996 8157.620000000002 1073.5499999999997 8161.150000000002 1069.6699999999996 8161.150000000002C1068.3699999999997 8161.150000000002 1067.1499999999996 8160.450000000003 1066.7299999999996 8159.650000000002C1066.7299999999996 8159.650000000002 1066.0299999999995 8162.420000000003 1065.8899999999996 8162.960000000003C1065.6299999999997 8163.870000000003 1065.1499999999996 8164.790000000003 1064.6899999999996 8165.510000000003C1065.7399999999996 8165.810000000003 1066.8499999999997 8165.970000000003 1067.9999999999995 8165.970000000003C1074.6299999999997 8165.970000000003 1079.9999999999995 8160.600000000003 1079.9999999999995 8153.970000000003C1079.9999999999995 8147.340000000003 1074.6299999999997 8141.970000000003 1067.9999999999995 8141.970000000003Z " fill="#000000" transform="matrix(1,0,0,1,-1056,-8141)"></path><path id="SvgjsPath1060" d="M1068 8141.97C1061.37 8141.97 1056 8147.34 1056 8153.97C1056 8158.91 1058.99 8163.150000000001 1063.25 8164.990000000001C1063.22 8164.160000000001 1063.25 8163.160000000001 1063.46 8162.250000000001C1063.69 8161.280000000001 1065.01 8155.6900000000005 1065.01 8155.6900000000005C1065.01 8155.6900000000005 1064.6299999999999 8154.92 1064.6299999999999 8153.790000000001C1064.6299999999999 8152.000000000001 1065.6599999999999 8150.670000000001 1066.9499999999998 8150.670000000001C1068.0399999999997 8150.670000000001 1068.5699999999997 8151.490000000001 1068.5699999999997 8152.480000000001C1068.5699999999997 8153.580000000002 1067.8699999999997 8155.230000000001 1067.5099999999998 8156.750000000002C1067.2099999999998 8158.030000000002 1068.1499999999999 8159.0700000000015 1069.4099999999999 8159.0700000000015C1071.6899999999998 8159.0700000000015 1073.2299999999998 8156.140000000001 1073.2299999999998 8152.670000000002C1073.2299999999998 8150.030000000002 1071.4499999999998 8148.050000000002 1068.2199999999998 8148.050000000002C1064.5699999999997 8148.050000000002 1062.2899999999997 8150.780000000002 1062.2899999999997 8153.820000000002C1062.2899999999997 8154.870000000003 1062.5999999999997 8155.610000000002 1063.0799999999997 8156.180000000002C1063.3099999999997 8156.440000000002 1063.3399999999997 8156.550000000002 1063.2499999999998 8156.850000000002C1063.1999999999998 8157.070000000002 1063.0699999999997 8157.610000000002 1063.0099999999998 8157.820000000002C1062.9299999999998 8158.130000000003 1062.6799999999998 8158.230000000002 1062.4099999999999 8158.120000000003C1060.7299999999998 8157.440000000002 1059.9399999999998 8155.590000000003 1059.9399999999998 8153.520000000002C1059.9399999999998 8150.100000000002 1062.83 8146.000000000002 1068.5499999999997 8146.000000000002C1073.1499999999996 8146.000000000002 1076.1699999999996 8149.3200000000015 1076.1699999999996 8152.890000000002C1076.1699999999996 8157.620000000002 1073.5499999999997 8161.150000000002 1069.6699999999996 8161.150000000002C1068.3699999999997 8161.150000000002 1067.1499999999996 8160.450000000003 1066.7299999999996 8159.650000000002C1066.7299999999996 8159.650000000002 1066.0299999999995 8162.420000000003 1065.8899999999996 8162.960000000003C1065.6299999999997 8163.870000000003 1065.1499999999996 8164.790000000003 1064.6899999999996 8165.510000000003C1065.7399999999996 8165.810000000003 1066.8499999999997 8165.970000000003 1067.9999999999995 8165.970000000003C1074.6299999999997 8165.970000000003 1079.9999999999995 8160.600000000003 1079.9999999999995 8153.970000000003C1079.9999999999995 8147.340000000003 1074.6299999999997 8141.970000000003 1067.9999999999995 8141.970000000003Z " fill="#ffffff" fill-opacity="1" transform="matrix(1,0,0,1,-1056,-8141)"></path></svg>