<svg id="SvgjsSvg1061" xmlns="http://www.w3.org/2000/svg" version="1.1" xmlns:xlink="http://www.w3.org/1999/xlink" xmlns:svgjs="http://svgjs.com/svgjs" width="24" height="25.5"><defs id="SvgjsDefs1062"><filter id="SvgjsFilter1064" width="200%" height="200%" x="-50%" y="-50%"><feGaussianBlur id="SvgjsFeGaussianBlur1065" stdDeviation="0 " result="SvgjsFeGaussianBlur1065Out" in="SourceGraphic"></feGaussianBlur></filter></defs><path id="SvgjsPath1063" d="M741.248 8207.59C741.327 8207.07 741.3810000000001 8206.54 741.3810000000001 8206C741.3810000000001 8200.09 736.5910000000001 8195.58 730.6830000000001 8195.58C730.1300000000001 8195.58 729.5920000000001 8195.63 729.0610000000001 8195.72C727.9950000000001 8194.8 726.6140000000001 8193.97 725.1010000000001 8193.97C721.7320000000001 8193.97 719.0000000000001 8196.699999999999 719.0000000000001 8200.07C719.0000000000001 8201.449999999999 719.4610000000001 8202.71 720.2290000000002 8203.73C720.0720000000001 8204.46 719.9840000000002 8205.22 719.9840000000002 8206C719.9840000000002 8211.91 724.7730000000001 8216.98 730.6830000000001 8216.98C731.4420000000001 8216.98 732.1820000000001 8216.9 732.8970000000002 8216.75C733.9680000000002 8217.68 735.3660000000002 8217.97 736.8990000000001 8217.97C740.2690000000001 8217.97 743.0000000000001 8215.24 743.0000000000001 8211.869999999999C743.0000000000001 8210.199999999999 742.3310000000001 8208.689999999999 741.2480000000002 8207.589999999998ZM735.675 8210.91C735.2529999999999 8211.51 734.637 8211.97 733.8249999999999 8212.31C733.0129999999999 8212.65 732.05 8212.82 730.938 8212.82C729.602 8212.82 728.502 8212.59 727.634 8212.13C727.02 8211.789999999999 726.52 8211.349999999999 726.135 8210.789999999999C725.751 8210.24 725.559 8209.689999999999 725.559 8209.169999999998C725.559 8208.859999999999 725.674 8208.599999999999 725.905 8208.379999999997C726.135 8208.169999999998 726.429 8208.059999999998 726.786 8208.059999999998C727.0749999999999 8208.059999999998 727.3199999999999 8208.139999999998 727.5189999999999 8208.309999999998C727.7199999999999 8208.479999999998 727.8909999999998 8208.729999999998 728.0309999999998 8209.069999999998C728.2039999999998 8209.459999999997 728.3889999999998 8209.789999999997 728.5899999999998 8210.059999999998C728.7889999999998 8210.319999999998 729.0709999999998 8210.539999999997 729.4329999999998 8210.719999999998C729.7959999999998 8210.889999999998 730.2729999999998 8210.969999999998 730.8629999999997 8210.969999999998C731.6749999999997 8210.969999999998 732.3349999999997 8210.799999999997 732.8419999999998 8210.449999999997C733.3489999999997 8210.109999999997 733.6039999999997 8209.669999999996 733.6039999999997 8209.149999999998C733.6039999999997 8208.739999999998 733.4669999999998 8208.399999999998 733.1929999999998 8208.149999999998C732.9189999999998 8207.889999999998 732.5649999999997 8207.689999999999 732.1319999999997 8207.559999999998C731.6979999999998 8207.419999999998 731.1189999999997 8207.279999999997 730.3929999999997 8207.119999999997C729.4209999999997 8206.919999999996 728.6069999999997 8206.669999999996 727.9529999999996 8206.389999999998C727.2979999999997 8206.109999999997 726.7779999999997 8205.729999999998 726.3939999999997 8205.249999999998C726.0089999999997 8204.759999999998 725.8179999999996 8204.159999999998 725.8179999999996 8203.439999999999C725.8179999999996 8202.759999999998 726.0199999999996 8202.149999999998 726.4269999999997 8201.619999999999C726.8319999999997 8201.089999999998 727.4189999999996 8200.679999999998 728.1889999999996 8200.4C728.9579999999996 8200.109999999999 729.8609999999996 8199.97 730.9009999999996 8199.97C731.7309999999997 8199.97 732.4489999999996 8200.06 733.0549999999996 8200.25C733.6609999999996 8200.44 734.1619999999996 8200.69 734.5619999999996 8201.01C734.9619999999995 8201.32 735.2549999999995 8201.65 735.4389999999995 8201.99C735.6239999999995 8202.34 735.7159999999996 8202.68 735.7159999999996 8203C735.7159999999996 8203.3 735.6009999999995 8203.57 735.3699999999995 8203.81C735.1399999999995 8204.05 734.8519999999995 8204.17 734.5079999999996 8204.17C734.1929999999995 8204.17 733.9549999999996 8204.1 733.7919999999996 8203.960000000001C733.6289999999996 8203.810000000001 733.4519999999995 8203.580000000002 733.2619999999996 8203.250000000002C733.0159999999996 8202.780000000002 732.7219999999996 8202.410000000002 732.3759999999996 8202.150000000001C732.0309999999996 8201.890000000001 731.4779999999996 8201.760000000002 730.7149999999997 8201.760000000002C730.0089999999997 8201.760000000002 729.4389999999997 8201.900000000001 729.0049999999997 8202.180000000002C728.5709999999997 8202.470000000003 728.3539999999997 8202.810000000001 728.3539999999997 8203.220000000003C728.3539999999997 8203.460000000003 728.4289999999997 8203.680000000002 728.5759999999997 8203.860000000002C728.7229999999997 8204.040000000003 728.9259999999997 8204.200000000003 729.1849999999997 8204.330000000002C729.4419999999997 8204.460000000001 729.7039999999997 8204.560000000001 729.9679999999997 8204.630000000001C730.2329999999997 8204.710000000001 730.6689999999998 8204.810000000001 731.2789999999998 8204.95C732.0409999999997 8205.12 732.7309999999998 8205.300000000001 733.3489999999998 8205.5C733.9669999999999 8205.69 734.4929999999998 8205.93 734.9269999999998 8206.22C735.3599999999998 8206.5 735.6989999999998 8206.859999999999 735.9419999999998 8207.289999999999C736.1849999999998 8207.72 736.3069999999998 8208.249999999998 736.3069999999998 8208.88C736.3069999999998 8209.63 736.0949999999998 8210.31 735.6749999999998 8210.91Z " fill="#000000" fill-opacity="0.1" filter="url(#SvgjsFilter1064)" transform="matrix(1,0,0,1,-719,-8192)"></path><path id="SvgjsPath1066" d="M741.248 8206.59C741.327 8206.07 741.3810000000001 8205.54 741.3810000000001 8205C741.3810000000001 8199.09 736.5910000000001 8194.58 730.6830000000001 8194.58C730.1300000000001 8194.58 729.5920000000001 8194.63 729.0610000000001 8194.72C727.9950000000001 8193.8 726.6140000000001 8192.97 725.1010000000001 8192.97C721.7320000000001 8192.97 719.0000000000001 8195.699999999999 719.0000000000001 8199.07C719.0000000000001 8200.449999999999 719.4610000000001 8201.71 720.2290000000002 8202.73C720.0720000000001 8203.46 719.9840000000002 8204.22 719.9840000000002 8205C719.9840000000002 8210.91 724.7730000000001 8215.98 730.6830000000001 8215.98C731.4420000000001 8215.98 732.1820000000001 8215.9 732.8970000000002 8215.75C733.9680000000002 8216.68 735.3660000000002 8216.97 736.8990000000001 8216.97C740.2690000000001 8216.97 743.0000000000001 8214.24 743.0000000000001 8210.869999999999C743.0000000000001 8209.199999999999 742.3310000000001 8207.689999999999 741.2480000000002 8206.589999999998ZM735.675 8209.91C735.2529999999999 8210.51 734.637 8210.97 733.8249999999999 8211.31C733.0129999999999 8211.65 732.05 8211.82 730.938 8211.82C729.602 8211.82 728.502 8211.59 727.634 8211.13C727.02 8210.789999999999 726.52 8210.349999999999 726.135 8209.789999999999C725.751 8209.24 725.559 8208.689999999999 725.559 8208.169999999998C725.559 8207.859999999999 725.674 8207.599999999999 725.905 8207.379999999997C726.135 8207.169999999998 726.429 8207.059999999998 726.786 8207.059999999998C727.0749999999999 8207.059999999998 727.3199999999999 8207.139999999998 727.5189999999999 8207.309999999998C727.7199999999999 8207.479999999998 727.8909999999998 8207.729999999998 728.0309999999998 8208.069999999998C728.2039999999998 8208.459999999997 728.3889999999998 8208.789999999997 728.5899999999998 8209.059999999998C728.7889999999998 8209.319999999998 729.0709999999998 8209.539999999997 729.4329999999998 8209.719999999998C729.7959999999998 8209.889999999998 730.2729999999998 8209.969999999998 730.8629999999997 8209.969999999998C731.6749999999997 8209.969999999998 732.3349999999997 8209.799999999997 732.8419999999998 8209.449999999997C733.3489999999997 8209.109999999997 733.6039999999997 8208.669999999996 733.6039999999997 8208.149999999998C733.6039999999997 8207.739999999998 733.4669999999998 8207.399999999998 733.1929999999998 8207.149999999998C732.9189999999998 8206.889999999998 732.5649999999997 8206.689999999999 732.1319999999997 8206.559999999998C731.6979999999998 8206.419999999998 731.1189999999997 8206.279999999997 730.3929999999997 8206.119999999997C729.4209999999997 8205.919999999996 728.6069999999997 8205.669999999996 727.9529999999996 8205.389999999998C727.2979999999997 8205.109999999997 726.7779999999997 8204.729999999998 726.3939999999997 8204.249999999998C726.0089999999997 8203.759999999998 725.8179999999996 8203.159999999998 725.8179999999996 8202.439999999999C725.8179999999996 8201.759999999998 726.0199999999996 8201.149999999998 726.4269999999997 8200.619999999999C726.8319999999997 8200.089999999998 727.4189999999996 8199.679999999998 728.1889999999996 8199.4C728.9579999999996 8199.109999999999 729.8609999999996 8198.97 730.9009999999996 8198.97C731.7309999999997 8198.97 732.4489999999996 8199.06 733.0549999999996 8199.25C733.6609999999996 8199.44 734.1619999999996 8199.69 734.5619999999996 8200.01C734.9619999999995 8200.32 735.2549999999995 8200.65 735.4389999999995 8200.99C735.6239999999995 8201.34 735.7159999999996 8201.68 735.7159999999996 8202C735.7159999999996 8202.3 735.6009999999995 8202.57 735.3699999999995 8202.81C735.1399999999995 8203.05 734.8519999999995 8203.17 734.5079999999996 8203.17C734.1929999999995 8203.17 733.9549999999996 8203.1 733.7919999999996 8202.960000000001C733.6289999999996 8202.810000000001 733.4519999999995 8202.580000000002 733.2619999999996 8202.250000000002C733.0159999999996 8201.780000000002 732.7219999999996 8201.410000000002 732.3759999999996 8201.150000000001C732.0309999999996 8200.890000000001 731.4779999999996 8200.760000000002 730.7149999999997 8200.760000000002C730.0089999999997 8200.760000000002 729.4389999999997 8200.900000000001 729.0049999999997 8201.180000000002C728.5709999999997 8201.470000000003 728.3539999999997 8201.810000000001 728.3539999999997 8202.220000000003C728.3539999999997 8202.460000000003 728.4289999999997 8202.680000000002 728.5759999999997 8202.860000000002C728.7229999999997 8203.040000000003 728.9259999999997 8203.200000000003 729.1849999999997 8203.330000000002C729.4419999999997 8203.460000000001 729.7039999999997 8203.560000000001 729.9679999999997 8203.630000000001C730.2329999999997 8203.710000000001 730.6689999999998 8203.810000000001 731.2789999999998 8203.95C732.0409999999997 8204.12 732.7309999999998 8204.300000000001 733.3489999999998 8204.5C733.9669999999999 8204.69 734.4929999999998 8204.93 734.9269999999998 8205.22C735.3599999999998 8205.5 735.6989999999998 8205.859999999999 735.9419999999998 8206.289999999999C736.1849999999998 8206.72 736.3069999999998 8207.249999999998 736.3069999999998 8207.88C736.3069999999998 8208.63 736.0949999999998 8209.31 735.6749999999998 8209.91Z " fill="#000000" transform="matrix(1,0,0,1,-719,-8192)"></path><path id="SvgjsPath1067" d="M741.248 8206.59C741.327 8206.07 741.3810000000001 8205.54 741.3810000000001 8205C741.3810000000001 8199.09 736.5910000000001 8194.58 730.6830000000001 8194.58C730.1300000000001 8194.58 729.5920000000001 8194.63 729.0610000000001 8194.72C727.9950000000001 8193.8 726.6140000000001 8192.97 725.1010000000001 8192.97C721.7320000000001 8192.97 719.0000000000001 8195.699999999999 719.0000000000001 8199.07C719.0000000000001 8200.449999999999 719.4610000000001 8201.71 720.2290000000002 8202.73C720.0720000000001 8203.46 719.9840000000002 8204.22 719.9840000000002 8205C719.9840000000002 8210.91 724.7730000000001 8215.98 730.6830000000001 8215.98C731.4420000000001 8215.98 732.1820000000001 8215.9 732.8970000000002 8215.75C733.9680000000002 8216.68 735.3660000000002 8216.97 736.8990000000001 8216.97C740.2690000000001 8216.97 743.0000000000001 8214.24 743.0000000000001 8210.869999999999C743.0000000000001 8209.199999999999 742.3310000000001 8207.689999999999 741.2480000000002 8206.589999999998ZM735.675 8209.91C735.2529999999999 8210.51 734.637 8210.97 733.8249999999999 8211.31C733.0129999999999 8211.65 732.05 8211.82 730.938 8211.82C729.602 8211.82 728.502 8211.59 727.634 8211.13C727.02 8210.789999999999 726.52 8210.349999999999 726.135 8209.789999999999C725.751 8209.24 725.559 8208.689999999999 725.559 8208.169999999998C725.559 8207.859999999999 725.674 8207.599999999999 725.905 8207.379999999997C726.135 8207.169999999998 726.429 8207.059999999998 726.786 8207.059999999998C727.0749999999999 8207.059999999998 727.3199999999999 8207.139999999998 727.5189999999999 8207.309999999998C727.7199999999999 8207.479999999998 727.8909999999998 8207.729999999998 728.0309999999998 8208.069999999998C728.2039999999998 8208.459999999997 728.3889999999998 8208.789999999997 728.5899999999998 8209.059999999998C728.7889999999998 8209.319999999998 729.0709999999998 8209.539999999997 729.4329999999998 8209.719999999998C729.7959999999998 8209.889999999998 730.2729999999998 8209.969999999998 730.8629999999997 8209.969999999998C731.6749999999997 8209.969999999998 732.3349999999997 8209.799999999997 732.8419999999998 8209.449999999997C733.3489999999997 8209.109999999997 733.6039999999997 8208.669999999996 733.6039999999997 8208.149999999998C733.6039999999997 8207.739999999998 733.4669999999998 8207.399999999998 733.1929999999998 8207.149999999998C732.9189999999998 8206.889999999998 732.5649999999997 8206.689999999999 732.1319999999997 8206.559999999998C731.6979999999998 8206.419999999998 731.1189999999997 8206.279999999997 730.3929999999997 8206.119999999997C729.4209999999997 8205.919999999996 728.6069999999997 8205.669999999996 727.9529999999996 8205.389999999998C727.2979999999997 8205.109999999997 726.7779999999997 8204.729999999998 726.3939999999997 8204.249999999998C726.0089999999997 8203.759999999998 725.8179999999996 8203.159999999998 725.8179999999996 8202.439999999999C725.8179999999996 8201.759999999998 726.0199999999996 8201.149999999998 726.4269999999997 8200.619999999999C726.8319999999997 8200.089999999998 727.4189999999996 8199.679999999998 728.1889999999996 8199.4C728.9579999999996 8199.109999999999 729.8609999999996 8198.97 730.9009999999996 8198.97C731.7309999999997 8198.97 732.4489999999996 8199.06 733.0549999999996 8199.25C733.6609999999996 8199.44 734.1619999999996 8199.69 734.5619999999996 8200.01C734.9619999999995 8200.32 735.2549999999995 8200.65 735.4389999999995 8200.99C735.6239999999995 8201.34 735.7159999999996 8201.68 735.7159999999996 8202C735.7159999999996 8202.3 735.6009999999995 8202.57 735.3699999999995 8202.81C735.1399999999995 8203.05 734.8519999999995 8203.17 734.5079999999996 8203.17C734.1929999999995 8203.17 733.9549999999996 8203.1 733.7919999999996 8202.960000000001C733.6289999999996 8202.810000000001 733.4519999999995 8202.580000000002 733.2619999999996 8202.250000000002C733.0159999999996 8201.780000000002 732.7219999999996 8201.410000000002 732.3759999999996 8201.150000000001C732.0309999999996 8200.890000000001 731.4779999999996 8200.760000000002 730.7149999999997 8200.760000000002C730.0089999999997 8200.760000000002 729.4389999999997 8200.900000000001 729.0049999999997 8201.180000000002C728.5709999999997 8201.470000000003 728.3539999999997 8201.810000000001 728.3539999999997 8202.220000000003C728.3539999999997 8202.460000000003 728.4289999999997 8202.680000000002 728.5759999999997 8202.860000000002C728.7229999999997 8203.040000000003 728.9259999999997 8203.200000000003 729.1849999999997 8203.330000000002C729.4419999999997 8203.460000000001 729.7039999999997 8203.560000000001 729.9679999999997 8203.630000000001C730.2329999999997 8203.710000000001 730.6689999999998 8203.810000000001 731.2789999999998 8203.95C732.0409999999997 8204.12 732.7309999999998 8204.300000000001 733.3489999999998 8204.5C733.9669999999999 8204.69 734.4929999999998 8204.93 734.9269999999998 8205.22C735.3599999999998 8205.5 735.6989999999998 8205.859999999999 735.9419999999998 8206.289999999999C736.1849999999998 8206.72 736.3069999999998 8207.249999999998 736.3069999999998 8207.88C736.3069999999998 8208.63 736.0949999999998 8209.31 735.6749999999998 8209.91Z " fill="#000000" transform="matrix(1,0,0,1,-719,-8192)"></path><path id="SvgjsPath1068" d="M741.248 8206.59C741.327 8206.07 741.3810000000001 8205.54 741.3810000000001 8205C741.3810000000001 8199.09 736.5910000000001 8194.58 730.6830000000001 8194.58C730.1300000000001 8194.58 729.5920000000001 8194.63 729.0610000000001 8194.72C727.9950000000001 8193.8 726.6140000000001 8192.97 725.1010000000001 8192.97C721.7320000000001 8192.97 719.0000000000001 8195.699999999999 719.0000000000001 8199.07C719.0000000000001 8200.449999999999 719.4610000000001 8201.71 720.2290000000002 8202.73C720.0720000000001 8203.46 719.9840000000002 8204.22 719.9840000000002 8205C719.9840000000002 8210.91 724.7730000000001 8215.98 730.6830000000001 8215.98C731.4420000000001 8215.98 732.1820000000001 8215.9 732.8970000000002 8215.75C733.9680000000002 8216.68 735.3660000000002 8216.97 736.8990000000001 8216.97C740.2690000000001 8216.97 743.0000000000001 8214.24 743.0000000000001 8210.869999999999C743.0000000000001 8209.199999999999 742.3310000000001 8207.689999999999 741.2480000000002 8206.589999999998ZM735.675 8209.91C735.2529999999999 8210.51 734.637 8210.97 733.8249999999999 8211.31C733.0129999999999 8211.65 732.05 8211.82 730.938 8211.82C729.602 8211.82 728.502 8211.59 727.634 8211.13C727.02 8210.789999999999 726.52 8210.349999999999 726.135 8209.789999999999C725.751 8209.24 725.559 8208.689999999999 725.559 8208.169999999998C725.559 8207.859999999999 725.674 8207.599999999999 725.905 8207.379999999997C726.135 8207.169999999998 726.429 8207.059999999998 726.786 8207.059999999998C727.0749999999999 8207.059999999998 727.3199999999999 8207.139999999998 727.5189999999999 8207.309999999998C727.7199999999999 8207.479999999998 727.8909999999998 8207.729999999998 728.0309999999998 8208.069999999998C728.2039999999998 8208.459999999997 728.3889999999998 8208.789999999997 728.5899999999998 8209.059999999998C728.7889999999998 8209.319999999998 729.0709999999998 8209.539999999997 729.4329999999998 8209.719999999998C729.7959999999998 8209.889999999998 730.2729999999998 8209.969999999998 730.8629999999997 8209.969999999998C731.6749999999997 8209.969999999998 732.3349999999997 8209.799999999997 732.8419999999998 8209.449999999997C733.3489999999997 8209.109999999997 733.6039999999997 8208.669999999996 733.6039999999997 8208.149999999998C733.6039999999997 8207.739999999998 733.4669999999998 8207.399999999998 733.1929999999998 8207.149999999998C732.9189999999998 8206.889999999998 732.5649999999997 8206.689999999999 732.1319999999997 8206.559999999998C731.6979999999998 8206.419999999998 731.1189999999997 8206.279999999997 730.3929999999997 8206.119999999997C729.4209999999997 8205.919999999996 728.6069999999997 8205.669999999996 727.9529999999996 8205.389999999998C727.2979999999997 8205.109999999997 726.7779999999997 8204.729999999998 726.3939999999997 8204.249999999998C726.0089999999997 8203.759999999998 725.8179999999996 8203.159999999998 725.8179999999996 8202.439999999999C725.8179999999996 8201.759999999998 726.0199999999996 8201.149999999998 726.4269999999997 8200.619999999999C726.8319999999997 8200.089999999998 727.4189999999996 8199.679999999998 728.1889999999996 8199.4C728.9579999999996 8199.109999999999 729.8609999999996 8198.97 730.9009999999996 8198.97C731.7309999999997 8198.97 732.4489999999996 8199.06 733.0549999999996 8199.25C733.6609999999996 8199.44 734.1619999999996 8199.69 734.5619999999996 8200.01C734.9619999999995 8200.32 735.2549999999995 8200.65 735.4389999999995 8200.99C735.6239999999995 8201.34 735.7159999999996 8201.68 735.7159999999996 8202C735.7159999999996 8202.3 735.6009999999995 8202.57 735.3699999999995 8202.81C735.1399999999995 8203.05 734.8519999999995 8203.17 734.5079999999996 8203.17C734.1929999999995 8203.17 733.9549999999996 8203.1 733.7919999999996 8202.960000000001C733.6289999999996 8202.810000000001 733.4519999999995 8202.580000000002 733.2619999999996 8202.250000000002C733.0159999999996 8201.780000000002 732.7219999999996 8201.410000000002 732.3759999999996 8201.150000000001C732.0309999999996 8200.890000000001 731.4779999999996 8200.760000000002 730.7149999999997 8200.760000000002C730.0089999999997 8200.760000000002 729.4389999999997 8200.900000000001 729.0049999999997 8201.180000000002C728.5709999999997 8201.470000000003 728.3539999999997 8201.810000000001 728.3539999999997 8202.220000000003C728.3539999999997 8202.460000000003 728.4289999999997 8202.680000000002 728.5759999999997 8202.860000000002C728.7229999999997 8203.040000000003 728.9259999999997 8203.200000000003 729.1849999999997 8203.330000000002C729.4419999999997 8203.460000000001 729.7039999999997 8203.560000000001 729.9679999999997 8203.630000000001C730.2329999999997 8203.710000000001 730.6689999999998 8203.810000000001 731.2789999999998 8203.95C732.0409999999997 8204.12 732.7309999999998 8204.300000000001 733.3489999999998 8204.5C733.9669999999999 8204.69 734.4929999999998 8204.93 734.9269999999998 8205.22C735.3599999999998 8205.5 735.6989999999998 8205.859999999999 735.9419999999998 8206.289999999999C736.1849999999998 8206.72 736.3069999999998 8207.249999999998 736.3069999999998 8207.88C736.3069999999998 8208.63 736.0949999999998 8209.31 735.6749999999998 8209.91Z " fill="#ffffff" fill-opacity="1" transform="matrix(1,0,0,1,-719,-8192)"></path></svg>