<svg id="SvgjsSvg1101" xmlns="http://www.w3.org/2000/svg" version="1.1" xmlns:xlink="http://www.w3.org/1999/xlink" xmlns:svgjs="http://svgjs.com/svgjs" width="16" height="25.5"><defs id="SvgjsDefs1102"><filter id="SvgjsFilter1104" width="200%" height="200%" x="-50%" y="-50%"><feGaussianBlur id="SvgjsFeGaussianBlur1105" stdDeviation="0 " result="SvgjsFeGaussianBlur1105Out" in="SourceGraphic"></feGaussianBlur></filter></defs><path id="SvgjsPath1103" d="M1016.18 8214.04C1014.12 8214.04 1013.01 8212.44 1013.01 8211.2C1013.01 8210.66 1013.01 8207.67 1013.01 8204.01L1018 8204.01L1018 8199.960000000001L1013.01 8199.960000000001C1013.01 8196.810000000001 1013.01 8193.970000000001 1013.01 8193.970000000001C1013.01 8193.970000000001 1011.16 8193.970000000001 1009.52 8193.970000000001C1009.52 8199.18 1004.99 8200.150000000001 1004.99 8200.150000000001L1004.99 8203.960000000001L1008 8203.960000000001C1008 8203.960000000001 1008 8209.560000000001 1008 8212.53C1008 8215.5 1010.74 8217.970000000001 1014.08 8217.970000000001C1017.4100000000001 8217.970000000001 1019.01 8216.640000000001 1019.01 8216.640000000001L1019.01 8212.710000000001C1019.01 8212.710000000001 1018.24 8214.04 1016.18 8214.04Z " fill="#000000" fill-opacity="0.1" filter="url(#SvgjsFilter1104)" transform="matrix(1,0,0,1,-1004,-8192)"></path><path id="SvgjsPath1106" d="M1016.18 8213.04C1014.12 8213.04 1013.01 8211.44 1013.01 8210.2C1013.01 8209.66 1013.01 8206.67 1013.01 8203.01L1018 8203.01L1018 8198.960000000001L1013.01 8198.960000000001C1013.01 8195.810000000001 1013.01 8192.970000000001 1013.01 8192.970000000001C1013.01 8192.970000000001 1011.16 8192.970000000001 1009.52 8192.970000000001C1009.52 8198.18 1004.99 8199.150000000001 1004.99 8199.150000000001L1004.99 8202.960000000001L1008 8202.960000000001C1008 8202.960000000001 1008 8208.560000000001 1008 8211.53C1008 8214.5 1010.74 8216.970000000001 1014.08 8216.970000000001C1017.4100000000001 8216.970000000001 1019.01 8215.640000000001 1019.01 8215.640000000001L1019.01 8211.710000000001C1019.01 8211.710000000001 1018.24 8213.04 1016.18 8213.04Z " fill="#000000" transform="matrix(1,0,0,1,-1004,-8192)"></path><path id="SvgjsPath1107" d="M1016.18 8213.04C1014.12 8213.04 1013.01 8211.44 1013.01 8210.2C1013.01 8209.66 1013.01 8206.67 1013.01 8203.01L1018 8203.01L1018 8198.960000000001L1013.01 8198.960000000001C1013.01 8195.810000000001 1013.01 8192.970000000001 1013.01 8192.970000000001C1013.01 8192.970000000001 1011.16 8192.970000000001 1009.52 8192.970000000001C1009.52 8198.18 1004.99 8199.150000000001 1004.99 8199.150000000001L1004.99 8202.960000000001L1008 8202.960000000001C1008 8202.960000000001 1008 8208.560000000001 1008 8211.53C1008 8214.5 1010.74 8216.970000000001 1014.08 8216.970000000001C1017.4100000000001 8216.970000000001 1019.01 8215.640000000001 1019.01 8215.640000000001L1019.01 8211.710000000001C1019.01 8211.710000000001 1018.24 8213.04 1016.18 8213.04Z " fill="#000000" transform="matrix(1,0,0,1,-1004,-8192)"></path><path id="SvgjsPath1108" d="M1016.18 8213.04C1014.12 8213.04 1013.01 8211.44 1013.01 8210.2C1013.01 8209.66 1013.01 8206.67 1013.01 8203.01L1018 8203.01L1018 8198.960000000001L1013.01 8198.960000000001C1013.01 8195.810000000001 1013.01 8192.970000000001 1013.01 8192.970000000001C1013.01 8192.970000000001 1011.16 8192.970000000001 1009.52 8192.970000000001C1009.52 8198.18 1004.99 8199.150000000001 1004.99 8199.150000000001L1004.99 8202.960000000001L1008 8202.960000000001C1008 8202.960000000001 1008 8208.560000000001 1008 8211.53C1008 8214.5 1010.74 8216.970000000001 1014.08 8216.970000000001C1017.4100000000001 8216.970000000001 1019.01 8215.640000000001 1019.01 8215.640000000001L1019.01 8211.710000000001C1019.01 8211.710000000001 1018.24 8213.04 1016.18 8213.04Z " fill="#ffffff" fill-opacity="1" transform="matrix(1,0,0,1,-1004,-8192)"></path></svg>