<svg id="SvgjsSvg1000" xmlns="http://www.w3.org/2000/svg" version="1.1" xmlns:xlink="http://www.w3.org/1999/xlink" xmlns:svgjs="http://svgjs.com/svgjs" width="24" height="20.829999999999018"><defs id="SvgjsDefs1001"><filter id="SvgjsFilter1008" width="200%" height="200%" x="-50%" y="-50%"><feGaussianBlur id="SvgjsFeGaussianBlur1009" stdDeviation="0 " result="SvgjsFeGaussianBlur1009Out" in="SourceGraphic"></feGaussianBlur></filter></defs><path id="SvgjsPath1007" d="M744 8148.84C743.596 8149.07 742.383 8149.51 741.254 8149.62C741.9780000000001 8149.23 743.052 8147.95 743.316 8146.93C742.619 8147.38 741.019 8148.030000000001 740.229 8148.030000000001L740.229 8148.030000000001C739.327 8147.090000000001 738.058 8146.340000000001 736.6500000000001 8146.340000000001C733.916 8146.340000000001 731.9180000000001 8148.720000000001 731.9180000000001 8151.450000000001C731.9180000000001 8151.830000000001 731.9620000000001 8152.200000000001 732.0430000000001 8152.56L732.0420000000001 8152.56C728.3330000000002 8152.46 724.0590000000002 8150.410000000001 721.6160000000001 8147.2300000000005C720.1150000000001 8149.830000000001 721.4140000000001 8152.910000000001 723.118 8153.96C722.5350000000001 8154 721.461 8153.89 720.956 8153.4C720.922 8155.12 721.751 8157.41 724.775 8158.24C724.193 8158.55 723.1619999999999 8158.46 722.7139999999999 8158.4C722.871 8159.849999999999 724.91 8161.759999999999 727.14 8161.759999999999C726.345 8162.669999999999 723.356 8164.339999999999 720 8163.8099999999995C722.278 8165.2 724.935 8165.999999999999 727.745 8165.999999999999C735.7330000000001 8165.999999999999 742.28 8159.529999999999 741.946 8151.539999999999C741.945 8151.529999999999 741.945 8151.519999999999 741.9440000000001 8151.509999999999C741.945 8151.489999999999 741.946 8151.469999999999 741.946 8151.449999999999C741.946 8151.4299999999985 741.9440000000001 8151.399999999999 741.943 8151.379999999999C742.6709999999999 8150.879999999999 743.303 8149.999999999999 744 8148.839999999999Z " fill="#000000" fill-opacity="0.1" filter="url(#SvgjsFilter1008)" transform="matrix(1,0,0,1,-720,-8145)"></path><path id="SvgjsPath1010" d="M744 8147.84C743.596 8148.07 742.383 8148.51 741.254 8148.62C741.9780000000001 8148.23 743.052 8146.95 743.316 8145.93C742.619 8146.38 741.019 8147.030000000001 740.229 8147.030000000001L740.229 8147.030000000001C739.327 8146.090000000001 738.058 8145.340000000001 736.6500000000001 8145.340000000001C733.916 8145.340000000001 731.9180000000001 8147.720000000001 731.9180000000001 8150.450000000001C731.9180000000001 8150.830000000001 731.9620000000001 8151.200000000001 732.0430000000001 8151.56L732.0420000000001 8151.56C728.3330000000002 8151.46 724.0590000000002 8149.410000000001 721.6160000000001 8146.2300000000005C720.1150000000001 8148.830000000001 721.4140000000001 8151.910000000001 723.118 8152.96C722.5350000000001 8153 721.461 8152.89 720.956 8152.4C720.922 8154.12 721.751 8156.41 724.775 8157.24C724.193 8157.55 723.1619999999999 8157.46 722.7139999999999 8157.4C722.871 8158.849999999999 724.91 8160.759999999999 727.14 8160.759999999999C726.345 8161.669999999999 723.356 8163.339999999999 720 8162.8099999999995C722.278 8164.2 724.935 8164.999999999999 727.745 8164.999999999999C735.7330000000001 8164.999999999999 742.28 8158.529999999999 741.946 8150.539999999999C741.945 8150.529999999999 741.945 8150.519999999999 741.9440000000001 8150.509999999999C741.945 8150.489999999999 741.946 8150.469999999999 741.946 8150.449999999999C741.946 8150.4299999999985 741.9440000000001 8150.399999999999 741.943 8150.379999999999C742.6709999999999 8149.879999999999 743.303 8148.999999999999 744 8147.839999999999Z " fill="#000000" transform="matrix(1,0,0,1,-720,-8145)"></path><path id="SvgjsPath1011" d="M744 8147.84C743.596 8148.07 742.383 8148.51 741.254 8148.62C741.9780000000001 8148.23 743.052 8146.95 743.316 8145.93C742.619 8146.38 741.019 8147.030000000001 740.229 8147.030000000001L740.229 8147.030000000001C739.327 8146.090000000001 738.058 8145.340000000001 736.6500000000001 8145.340000000001C733.916 8145.340000000001 731.9180000000001 8147.720000000001 731.9180000000001 8150.450000000001C731.9180000000001 8150.830000000001 731.9620000000001 8151.200000000001 732.0430000000001 8151.56L732.0420000000001 8151.56C728.3330000000002 8151.46 724.0590000000002 8149.410000000001 721.6160000000001 8146.2300000000005C720.1150000000001 8148.830000000001 721.4140000000001 8151.910000000001 723.118 8152.96C722.5350000000001 8153 721.461 8152.89 720.956 8152.4C720.922 8154.12 721.751 8156.41 724.775 8157.24C724.193 8157.55 723.1619999999999 8157.46 722.7139999999999 8157.4C722.871 8158.849999999999 724.91 8160.759999999999 727.14 8160.759999999999C726.345 8161.669999999999 723.356 8163.339999999999 720 8162.8099999999995C722.278 8164.2 724.935 8164.999999999999 727.745 8164.999999999999C735.7330000000001 8164.999999999999 742.28 8158.529999999999 741.946 8150.539999999999C741.945 8150.529999999999 741.945 8150.519999999999 741.9440000000001 8150.509999999999C741.945 8150.489999999999 741.946 8150.469999999999 741.946 8150.449999999999C741.946 8150.4299999999985 741.9440000000001 8150.399999999999 741.943 8150.379999999999C742.6709999999999 8149.879999999999 743.303 8148.999999999999 744 8147.839999999999Z " fill="#000000" transform="matrix(1,0,0,1,-720,-8145)"></path><path id="SvgjsPath1012" d="M744 8147.84C743.596 8148.07 742.383 8148.51 741.254 8148.62C741.9780000000001 8148.23 743.052 8146.95 743.316 8145.93C742.619 8146.38 741.019 8147.030000000001 740.229 8147.030000000001L740.229 8147.030000000001C739.327 8146.090000000001 738.058 8145.340000000001 736.6500000000001 8145.340000000001C733.916 8145.340000000001 731.9180000000001 8147.720000000001 731.9180000000001 8150.450000000001C731.9180000000001 8150.830000000001 731.9620000000001 8151.200000000001 732.0430000000001 8151.56L732.0420000000001 8151.56C728.3330000000002 8151.46 724.0590000000002 8149.410000000001 721.6160000000001 8146.2300000000005C720.1150000000001 8148.830000000001 721.4140000000001 8151.910000000001 723.118 8152.96C722.5350000000001 8153 721.461 8152.89 720.956 8152.4C720.922 8154.12 721.751 8156.41 724.775 8157.24C724.193 8157.55 723.1619999999999 8157.46 722.7139999999999 8157.4C722.871 8158.849999999999 724.91 8160.759999999999 727.14 8160.759999999999C726.345 8161.669999999999 723.356 8163.339999999999 720 8162.8099999999995C722.278 8164.2 724.935 8164.999999999999 727.745 8164.999999999999C735.7330000000001 8164.999999999999 742.28 8158.529999999999 741.946 8150.539999999999C741.945 8150.529999999999 741.945 8150.519999999999 741.9440000000001 8150.509999999999C741.945 8150.489999999999 741.946 8150.469999999999 741.946 8150.449999999999C741.946 8150.4299999999985 741.9440000000001 8150.399999999999 741.943 8150.379999999999C742.6709999999999 8149.879999999999 743.303 8148.999999999999 744 8147.839999999999Z " fill="#ffffff" fill-opacity="1" transform="matrix(1,0,0,1,-720,-8145)"></path></svg>