<svg id="SvgjsSvg1093" xmlns="http://www.w3.org/2000/svg" version="1.1" xmlns:xlink="http://www.w3.org/1999/xlink" xmlns:svgjs="http://svgjs.com/svgjs" width="24" height="21.979999999999563"><defs id="SvgjsDefs1094"><filter id="SvgjsFilter1096" width="200%" height="200%" x="-50%" y="-50%"><feGaussianBlur id="SvgjsFeGaussianBlur1097" stdDeviation="0 " result="SvgjsFeGaussianBlur1097Out" in="SourceGraphic"></feGaussianBlur></filter></defs><path id="SvgjsPath1095" d="M943 8202.75C945.111 8201.1 948.116 8197.98 950.458 8197.98C952.798 8197.98 953.371 8200.18 953.692 8202.64C954.015 8205.09 954.932 8210.46 956.17 8210.46C957.41 8210.46 960.231 8205.71 960.0709999999999 8203.88C959.911 8202.039999999999 957.8689999999999 8202.32 956.7439999999999 8202.839999999998C957.776 8199.169999999998 960.1639999999999 8196.999999999998 963.2139999999999 8196.999999999998C966.266 8196.999999999998 966.9999999999999 8199.329999999998 966.9999999999999 8201.929999999998C966.9999999999999 8205.869999999999 958.8319999999999 8217.96 953.8999999999999 8217.96C950.8469999999999 8217.96 950.0899999999999 8213.56 949.4719999999999 8211.38C948.8529999999998 8209.199999999999 947.6369999999998 8203.49 946.2129999999999 8203.119999999999C945.6619999999998 8203.029999999999 944.1019999999999 8204.24 944.1019999999999 8204.24Z " fill="#000000" fill-opacity="0.1" filter="url(#SvgjsFilter1096)" transform="matrix(1,0,0,1,-943,-8196)"></path><path id="SvgjsPath1098" d="M943 8201.75C945.111 8200.1 948.116 8196.98 950.458 8196.98C952.798 8196.98 953.371 8199.18 953.692 8201.64C954.015 8204.09 954.932 8209.46 956.17 8209.46C957.41 8209.46 960.231 8204.71 960.0709999999999 8202.88C959.911 8201.039999999999 957.8689999999999 8201.32 956.7439999999999 8201.839999999998C957.776 8198.169999999998 960.1639999999999 8195.999999999998 963.2139999999999 8195.999999999998C966.266 8195.999999999998 966.9999999999999 8198.329999999998 966.9999999999999 8200.929999999998C966.9999999999999 8204.869999999999 958.8319999999999 8216.96 953.8999999999999 8216.96C950.8469999999999 8216.96 950.0899999999999 8212.56 949.4719999999999 8210.38C948.8529999999998 8208.199999999999 947.6369999999998 8202.49 946.2129999999999 8202.119999999999C945.6619999999998 8202.029999999999 944.1019999999999 8203.24 944.1019999999999 8203.24Z " fill="#000000" transform="matrix(1,0,0,1,-943,-8196)"></path><path id="SvgjsPath1099" d="M943 8201.75C945.111 8200.1 948.116 8196.98 950.458 8196.98C952.798 8196.98 953.371 8199.18 953.692 8201.64C954.015 8204.09 954.932 8209.46 956.17 8209.46C957.41 8209.46 960.231 8204.71 960.0709999999999 8202.88C959.911 8201.039999999999 957.8689999999999 8201.32 956.7439999999999 8201.839999999998C957.776 8198.169999999998 960.1639999999999 8195.999999999998 963.2139999999999 8195.999999999998C966.266 8195.999999999998 966.9999999999999 8198.329999999998 966.9999999999999 8200.929999999998C966.9999999999999 8204.869999999999 958.8319999999999 8216.96 953.8999999999999 8216.96C950.8469999999999 8216.96 950.0899999999999 8212.56 949.4719999999999 8210.38C948.8529999999998 8208.199999999999 947.6369999999998 8202.49 946.2129999999999 8202.119999999999C945.6619999999998 8202.029999999999 944.1019999999999 8203.24 944.1019999999999 8203.24Z " fill="#000000" transform="matrix(1,0,0,1,-943,-8196)"></path><path id="SvgjsPath1100" d="M943 8201.75C945.111 8200.1 948.116 8196.98 950.458 8196.98C952.798 8196.98 953.371 8199.18 953.692 8201.64C954.015 8204.09 954.932 8209.46 956.17 8209.46C957.41 8209.46 960.231 8204.71 960.0709999999999 8202.88C959.911 8201.039999999999 957.8689999999999 8201.32 956.7439999999999 8201.839999999998C957.776 8198.169999999998 960.1639999999999 8195.999999999998 963.2139999999999 8195.999999999998C966.266 8195.999999999998 966.9999999999999 8198.329999999998 966.9999999999999 8200.929999999998C966.9999999999999 8204.869999999999 958.8319999999999 8216.96 953.8999999999999 8216.96C950.8469999999999 8216.96 950.0899999999999 8212.56 949.4719999999999 8210.38C948.8529999999998 8208.199999999999 947.6369999999998 8202.49 946.2129999999999 8202.119999999999C945.6619999999998 8202.029999999999 944.1019999999999 8203.24 944.1019999999999 8203.24Z " fill="#ffffff" fill-opacity="1" transform="matrix(1,0,0,1,-943,-8196)"></path></svg>