<svg id="SvgjsSvg1077" xmlns="http://www.w3.org/2000/svg" version="1.1" xmlns:xlink="http://www.w3.org/1999/xlink" xmlns:svgjs="http://svgjs.com/svgjs" width="24" height="14.505000000001019"><defs id="SvgjsDefs1078"><filter id="SvgjsFilter1080" width="200%" height="200%" x="-50%" y="-50%"><feGaussianBlur id="SvgjsFeGaussianBlur1081" stdDeviation="0 " result="SvgjsFeGaussianBlur1081Out" in="SourceGraphic"></feGaussianBlur></filter></defs><path id="SvgjsPath1079" d="M832 8199.97L832 8201.99C832 8201.99 833.141 8201.99 833.705 8201.99C834.269 8201.99 834.9200000000001 8202.63 835.485 8203.19C836.051 8203.75 839.967 8208.02 839.967 8208.02L839.992 8211.54C839.992 8211.54 839.698 8212.050000000001 838.568 8212.050000000001C837.439 8212.050000000001 837.006 8212.140000000001 837.006 8212.140000000001L837.006 8212.970000000001L845.951 8212.970000000001L845.951 8212.36C845.951 8212.36 845.691 8211.970000000001 845.475 8211.970000000001C845.256 8211.970000000001 843.613 8211.970000000001 843.3530000000001 8211.970000000001C843.094 8211.970000000001 843.0060000000001 8211.670000000002 843.0060000000001 8211.28C843.0060000000001 8210.890000000001 843.0060000000001 8208.230000000001 843.0060000000001 8208.230000000001L848.037 8203.650000000001C848.037 8203.650000000001 848.818 8203.180000000002 849.383 8203.180000000002C849.947 8203.180000000002 850.6840000000001 8203.180000000002 850.6840000000001 8203.180000000002L851.1640000000001 8201.960000000003L843.0100000000001 8201.960000000003L843.0960000000001 8202.880000000003L843.5740000000001 8203.140000000003L845.691 8203.230000000003C845.691 8203.230000000003 845.822 8203.700000000003 845.475 8203.960000000003C845.1270000000001 8204.210000000003 842.043 8207.030000000002 842.043 8207.030000000002L838.135 8202.110000000002C838.135 8202.110000000002 838.222 8201.980000000003 838.785 8201.980000000003C839.352 8201.980000000003 841.002 8201.980000000003 841.002 8201.980000000003L841.002 8199.970000000003ZM852.016 8200.97L851.972 8209.109999999999L853.448 8209.189999999999L855.531 8201.23ZM852.005 8211.03L852.005 8212.980000000001L854.082 8212.980000000001L854.183 8210.980000000001Z " fill="#000000" fill-opacity="0.1" filter="url(#SvgjsFilter1080)" transform="matrix(1,0,0,1,-832,-8198)"></path><path id="SvgjsPath1082" d="M832 8198.97L832 8200.99C832 8200.99 833.141 8200.99 833.705 8200.99C834.269 8200.99 834.9200000000001 8201.63 835.485 8202.19C836.051 8202.75 839.967 8207.02 839.967 8207.02L839.992 8210.54C839.992 8210.54 839.698 8211.050000000001 838.568 8211.050000000001C837.439 8211.050000000001 837.006 8211.140000000001 837.006 8211.140000000001L837.006 8211.970000000001L845.951 8211.970000000001L845.951 8211.36C845.951 8211.36 845.691 8210.970000000001 845.475 8210.970000000001C845.256 8210.970000000001 843.613 8210.970000000001 843.3530000000001 8210.970000000001C843.094 8210.970000000001 843.0060000000001 8210.670000000002 843.0060000000001 8210.28C843.0060000000001 8209.890000000001 843.0060000000001 8207.230000000001 843.0060000000001 8207.230000000001L848.037 8202.650000000001C848.037 8202.650000000001 848.818 8202.180000000002 849.383 8202.180000000002C849.947 8202.180000000002 850.6840000000001 8202.180000000002 850.6840000000001 8202.180000000002L851.1640000000001 8200.960000000003L843.0100000000001 8200.960000000003L843.0960000000001 8201.880000000003L843.5740000000001 8202.140000000003L845.691 8202.230000000003C845.691 8202.230000000003 845.822 8202.700000000003 845.475 8202.960000000003C845.1270000000001 8203.210000000003 842.043 8206.030000000002 842.043 8206.030000000002L838.135 8201.110000000002C838.135 8201.110000000002 838.222 8200.980000000003 838.785 8200.980000000003C839.352 8200.980000000003 841.002 8200.980000000003 841.002 8200.980000000003L841.002 8198.970000000003ZM852.016 8199.97L851.972 8208.109999999999L853.448 8208.189999999999L855.531 8200.23ZM852.005 8210.03L852.005 8211.980000000001L854.082 8211.980000000001L854.183 8209.980000000001Z " fill="#000000" transform="matrix(1,0,0,1,-832,-8198)"></path><path id="SvgjsPath1083" d="M832 8198.97L832 8200.99C832 8200.99 833.141 8200.99 833.705 8200.99C834.269 8200.99 834.9200000000001 8201.63 835.485 8202.19C836.051 8202.75 839.967 8207.02 839.967 8207.02L839.992 8210.54C839.992 8210.54 839.698 8211.050000000001 838.568 8211.050000000001C837.439 8211.050000000001 837.006 8211.140000000001 837.006 8211.140000000001L837.006 8211.970000000001L845.951 8211.970000000001L845.951 8211.36C845.951 8211.36 845.691 8210.970000000001 845.475 8210.970000000001C845.256 8210.970000000001 843.613 8210.970000000001 843.3530000000001 8210.970000000001C843.094 8210.970000000001 843.0060000000001 8210.670000000002 843.0060000000001 8210.28C843.0060000000001 8209.890000000001 843.0060000000001 8207.230000000001 843.0060000000001 8207.230000000001L848.037 8202.650000000001C848.037 8202.650000000001 848.818 8202.180000000002 849.383 8202.180000000002C849.947 8202.180000000002 850.6840000000001 8202.180000000002 850.6840000000001 8202.180000000002L851.1640000000001 8200.960000000003L843.0100000000001 8200.960000000003L843.0960000000001 8201.880000000003L843.5740000000001 8202.140000000003L845.691 8202.230000000003C845.691 8202.230000000003 845.822 8202.700000000003 845.475 8202.960000000003C845.1270000000001 8203.210000000003 842.043 8206.030000000002 842.043 8206.030000000002L838.135 8201.110000000002C838.135 8201.110000000002 838.222 8200.980000000003 838.785 8200.980000000003C839.352 8200.980000000003 841.002 8200.980000000003 841.002 8200.980000000003L841.002 8198.970000000003ZM852.016 8199.97L851.972 8208.109999999999L853.448 8208.189999999999L855.531 8200.23ZM852.005 8210.03L852.005 8211.980000000001L854.082 8211.980000000001L854.183 8209.980000000001Z " fill="#000000" transform="matrix(1,0,0,1,-832,-8198)"></path><path id="SvgjsPath1084" d="M832 8198.97L832 8200.99C832 8200.99 833.141 8200.99 833.705 8200.99C834.269 8200.99 834.9200000000001 8201.63 835.485 8202.19C836.051 8202.75 839.967 8207.02 839.967 8207.02L839.992 8210.54C839.992 8210.54 839.698 8211.050000000001 838.568 8211.050000000001C837.439 8211.050000000001 837.006 8211.140000000001 837.006 8211.140000000001L837.006 8211.970000000001L845.951 8211.970000000001L845.951 8211.36C845.951 8211.36 845.691 8210.970000000001 845.475 8210.970000000001C845.256 8210.970000000001 843.613 8210.970000000001 843.3530000000001 8210.970000000001C843.094 8210.970000000001 843.0060000000001 8210.670000000002 843.0060000000001 8210.28C843.0060000000001 8209.890000000001 843.0060000000001 8207.230000000001 843.0060000000001 8207.230000000001L848.037 8202.650000000001C848.037 8202.650000000001 848.818 8202.180000000002 849.383 8202.180000000002C849.947 8202.180000000002 850.6840000000001 8202.180000000002 850.6840000000001 8202.180000000002L851.1640000000001 8200.960000000003L843.0100000000001 8200.960000000003L843.0960000000001 8201.880000000003L843.5740000000001 8202.140000000003L845.691 8202.230000000003C845.691 8202.230000000003 845.822 8202.700000000003 845.475 8202.960000000003C845.1270000000001 8203.210000000003 842.043 8206.030000000002 842.043 8206.030000000002L838.135 8201.110000000002C838.135 8201.110000000002 838.222 8200.980000000003 838.785 8200.980000000003C839.352 8200.980000000003 841.002 8200.980000000003 841.002 8200.980000000003L841.002 8198.970000000003ZM852.016 8199.97L851.972 8208.109999999999L853.448 8208.189999999999L855.531 8200.23ZM852.005 8210.03L852.005 8211.980000000001L854.082 8211.980000000001L854.183 8209.980000000001Z " fill="#ffffff" fill-opacity="1" transform="matrix(1,0,0,1,-832,-8198)"></path></svg>